<svg width="221" height="177" viewBox="0 0 221 177" fill="none" xmlns="http://www.w3.org/2000/svg">
<g id="Group">
<g id="Group 2">
<path id="Blob" fill-rule="evenodd" clip-rule="evenodd" d="M127.341 176.703C153.663 176.703 176.762 157.189 163.789 130.684C150.817 104.179 199.017 105.035 213.176 86.7161C230.443 64.3759 225.443 -30.4549 114.594 27.3586C96.8378 36.6196 51.2348 17.8312 36.1082 27.1537C18.3026 38.1272 -6.74892 60.5973 18.3026 83.6149C30.6424 94.9528 -13.5989 124.381 5.77792 150.741C24.6848 176.462 37.9382 151.942 66.7238 157.189C95.5093 162.435 107.792 176.703 127.341 176.703Z" fill="#CFDA18"/>
<path id="Whites" d="M96.7902 130.592C96.7902 130.592 102.851 127.75 105.113 125.774C107.376 123.797 110.189 118.886 110.189 118.886C110.189 118.886 141.088 141.126 161.234 137.953C165.876 137.222 174.921 134.147 175.498 128.729C177.073 113.933 155.281 110.153 160.042 102.65C162.947 98.0698 171.973 104.886 171.973 104.886L209.411 123.239C209.411 123.239 196.478 155.015 165.09 156.288C126.48 157.855 96.7902 130.592 96.7902 130.592Z" fill="white"/>
<path id="Whites_2" fill-rule="evenodd" clip-rule="evenodd" d="M67.1078 6.15123C66.7564 6.01374 64.8694 3.71084 62.4737 3.29171C61.385 3.10124 62.3731 4.48282 61.1749 4.49525C57.6066 4.53228 51.8076 3.86412 50.7334 4.49525C49.935 4.96282 51.6933 6.59628 50.7334 6.67128C41.6765 7.3788 27.8597 16.3915 24.862 20.764C23.908 22.1555 31.6238 19.7946 30.3944 20.4825C29.0146 21.2547 27.4843 26.3104 26.5694 30.2152C25.936 32.904 25.5371 36.3645 25.3964 40.129C25.2791 43.3791 25.326 43.9168 25.7952 45.6939C26.3348 47.6813 26.7571 48.2658 27.4843 47.9853C27.7424 47.8917 27.8597 47.541 27.8597 46.8863C27.8597 46.3719 28.1412 44.8287 28.4931 43.4492L29.1031 40.9707L29.3611 41.9995C29.6896 43.192 31.6133 46.8863 33.3494 49.5752C33.443 49.7179 33.8458 49.5364 34.2091 48.6613C34.5401 47.8638 34.4058 46.5899 34.9681 45.2245C36.2491 42.1144 38.7642 38.0707 41.6765 34.8339C45.9807 30.0501 47.4088 24.5138 51.4435 20.0697C58.973 11.776 68.4232 6.66591 67.1078 6.15123Z" fill="white"/>
<path id="Shadow" fill-rule="evenodd" clip-rule="evenodd" d="M30.5014 21.6111C29.2935 22.5791 27.5006 30.4309 27.4699 30.5622C26.8364 33.2511 26.2259 42.5887 26.85 44.3565C27.4741 46.1244 29.2218 39.7516 29.2218 39.7516C29.2218 39.7516 31.8633 46.5879 34.1973 48.4623C34.2971 48.5423 31.423 40.0043 30.5014 35.0201C29.2848 28.4405 31.1888 21.0602 30.5014 21.6111Z" fill="#E7EAEE"/>
<path id="Whites_3" fill-rule="evenodd" clip-rule="evenodd" d="M75.5212 159.124C77.7734 158.633 81.5734 156.923 83.0284 156.339C84.4834 155.754 88.917 149.514 90.5122 142.476C91.6618 137.286 92.2483 129.897 91.5914 128.658C91.4944 128.482 91.1395 125.122 92.0842 126.219C94.184 128.658 96.6765 132.486 104.541 125.626C106.683 123.758 109.522 121.346 108.775 119.214C106.683 113.25 97.6164 101.239 96.2342 100.329C94.5815 99.2416 86.2283 100.166 73.797 96.5091C59.699 92.3619 53.8286 80.1498 48.3116 81.7395C43.8499 83.0251 33.1602 90.9255 30.4774 95.9285C17.812 119.548 33.1602 136.098 36.6556 140.852L40.0494 142.313L40.1667 145.329L40.3309 147.223C40.6359 150.847 40.7532 151.174 42.3954 152.39C46.5009 155.5 54.5947 158.399 61.9143 159.428C65.316 159.896 72.706 159.732 75.5212 159.124Z" fill="white"/>
<path id="Shadow_2" fill-rule="evenodd" clip-rule="evenodd" d="M41.3841 144.225L41.5484 146.119C41.8533 149.743 41.9706 150.07 43.6128 151.286C46.0348 153.121 49.8448 154.882 54.065 156.229C56.9985 157.166 60.1302 157.902 63.1317 158.324C66.5334 158.792 73.9234 158.628 76.7386 158.02C78.1302 157.72 66.6841 148.757 59.9411 151.286C54.7628 153.228 42.5577 138.415 47.5201 134.545C53.0869 130.203 42.8861 113.08 42.5577 109.362C42.2293 105.645 40.9358 104.756 40.8981 104.887C40.8603 105.017 40.8603 105.462 40.9618 106.534C41.3995 111.153 41.3841 144.225 41.3841 144.225Z" fill="#E7EAEE"/>
<g id="Group_2">
<path id="Highlights" fill-rule="evenodd" clip-rule="evenodd" d="M40.162 108.301C40.6545 108.205 41.1315 108.526 41.2274 109.017C42.998 118.083 50.4875 124.221 63.8798 127.43C77.3516 130.659 86.5281 130.485 91.3632 127.038C91.7713 126.747 91.467 129.239 91.1681 129.43C88.0145 131.445 77.2927 134.453 64.4977 131.734C48.138 128.259 40.4567 114.549 39.4438 109.363C39.3479 108.872 39.6695 108.396 40.162 108.301Z" fill="#FFB61D"/>
<path id="Highlights_2" fill-rule="evenodd" clip-rule="evenodd" d="M33.3398 91.9434C33.7753 91.695 50.0242 110.255 72.3231 114.456C94.622 118.658 100.021 115.986 100.889 110.255C100.964 109.761 101.427 109.42 101.923 109.495C102.419 109.57 102.76 110.031 102.686 110.526C101.586 117.788 91.2675 119.516 72.0174 116.242C53.0092 113.009 39.9771 105.328 33.0024 93.179C32.7532 92.745 32.9043 92.1917 33.3398 91.9434Z" fill="#FFB61D"/>
<path id="Stroke" fill-rule="evenodd" clip-rule="evenodd" d="M126.932 90.9142C126.322 90.7038 125.665 90.2361 125.243 89.6984L124.539 88.8332L127.026 86.3782C130.85 82.6371 133.783 78.8025 136.316 74.243C137.161 72.7232 139.296 67.6494 139.296 67.1584C139.296 66.9947 139.554 66.34 139.859 65.6619C140.328 64.6799 140.68 64.3058 141.689 63.7447C142.885 63.0432 144.246 62.8094 144.832 63.2069C145.958 63.9551 145.958 66.3166 144.832 70.3851C143.589 74.851 141.923 78.0543 138.475 82.6605C137.935 83.3619 136.926 84.7414 136.199 85.7001C134.252 88.2721 132.985 89.5113 131.272 90.47C129.583 91.4052 128.598 91.5221 126.932 90.9142ZM143.777 88.8099L145.466 89.5581C145.816 89.7192 149.68 91.5696 154.321 93.7923C161.804 97.3758 171.308 101.927 171.366 101.927C171.46 101.927 171.9 100.912 171.999 99.7291C172.234 97.1805 173.102 93.72 174.111 91.3117C174.58 90.2362 174.955 88.8919 174.955 88.775C174.955 88.7216 174.574 88.5683 173.949 88.3173C173.206 88.0185 172.118 87.5813 170.92 87.0095C165.008 84.1803 153.442 78.405 152.011 77.5399C150.603 76.7215 150.322 76.6514 150.322 77.1892C150.322 77.8906 148.891 81.1407 147.788 82.8943C147.202 83.853 146.052 85.5832 145.231 86.7289L143.777 88.8099ZM170.967 97.7183C171.64 98.1069 170.474 98.6769 170.193 98.7705C168.535 98.9108 166.584 98.6001 164.985 97.6715C164.148 97.0807 157.565 93.4356 153.199 91.0177C151.202 89.9123 149.669 89.0634 149.36 88.88C148.375 88.2955 147.436 87.6642 147.272 87.4771C146.779 86.8458 147.249 86.5652 148.633 86.6821C149.465 86.7524 169.514 96.8789 170.967 97.7183ZM82.0088 156.603L82.009 156.603L82.0096 156.603L82.0129 156.602C82.4486 156.418 82.8235 156.261 83.1085 156.146C84.5635 155.561 88.997 149.322 90.5923 142.284C91.7418 137.093 92.3283 129.705 91.6714 128.465C91.2754 127.748 93.6283 130.155 95.3806 131.948L95.3822 131.95L95.3824 131.95L95.3864 131.954C95.9153 132.495 96.3891 132.98 96.7154 133.305C106.944 143.43 122.17 151.566 137.982 155.378C145.864 157.295 151.471 157.973 159.002 157.973C171.647 157.973 181.618 155.495 190.673 150.047C191.098 149.791 191.496 149.556 191.875 149.333L191.879 149.33L191.888 149.325L191.891 149.324L191.891 149.323C195.048 147.461 196.928 146.351 202.075 140.577C207.848 134.1 212.984 119.066 214.697 113.875C215.447 111.537 217.277 102.237 217.277 99.9162C217.277 97.1686 216.315 95.8712 215.002 94.5384C212.679 92.2704 209.535 91.452 206.931 92.434L205.711 92.9017L205.336 91.6624C204.796 89.7919 203.67 88.2955 201.934 87.1732C199.354 85.4663 198.978 85.3494 196.656 85.3494C194.849 85.3494 194.357 85.4429 193.207 85.9807L191.87 86.5886L191.588 85.7469C191.049 84.0166 189.239 81.6046 187.835 80.9069C186.589 80.288 184.434 80.2313 182.932 80.5094C179.647 81.1173 177.301 82.6371 176.339 84.7648C176.058 85.4195 175.706 85.9339 175.565 85.9339C175.448 85.9339 170.826 84.6475 165.313 82.2158C164.387 81.8062 163.517 81.4219 162.7 81.061L162.689 81.056C152.789 76.6825 150.643 75.7346 150.838 74.547C151.002 73.5416 150.955 72.9804 150.674 72.1153C150.181 70.6657 149.618 70.2682 148.023 70.2682C146.756 70.2682 146.756 70.2682 146.897 69.6369C147.647 66.0594 147.624 64.0019 146.826 62.6925C146.287 61.8274 145.653 61.4766 144.199 61.2662C143.354 61.1493 142.955 61.2194 142.017 61.7338C141.384 62.0612 140.844 62.295 140.797 62.2482C140.75 62.2015 140.914 60.9155 141.172 59.3957C143.096 48.149 141.61 38.459 136.707 28.171C136.66 28.0726 136.605 27.9562 136.543 27.8229C135.053 24.6335 129.059 11.8084 111.918 5.33709C111.142 5.0442 110.408 4.76099 109.702 4.48881L109.702 4.48875C103.863 2.2362 99.9813 0.73873 90.6157 0.75427C80.1184 0.771688 76.5631 2.2507 69.6423 5.40724C68.6804 5.85149 67.8359 6.10869 67.7655 6.01516C67.6951 5.89825 67.2494 5.61767 66.8036 5.38385C66.3579 5.15004 65.396 4.56549 64.6922 4.09786C62.6746 2.74172 61.4312 2.18056 60.7978 2.32085C60.0706 2.5079 60.0706 3.11583 60.7978 3.39641C61.1028 3.51331 61.4547 3.9108 61.5955 4.30829C61.9005 5.15004 62.2524 5.24356 62.4635 4.54211C62.5573 4.28491 62.6981 4.09786 62.7685 4.14462C62.7952 4.15792 62.8844 4.19956 63.0206 4.2631L63.0208 4.26319L63.0211 4.26333L63.0214 4.26346L63.0219 4.2637L63.0223 4.26387C63.3655 4.42402 64.0049 4.72236 64.6922 5.05651C65.6541 5.52414 66.7098 6.01516 66.9913 6.13207C67.5074 6.31912 67.3432 6.45941 65.1145 7.76879C56.4108 12.866 49.3258 20.7924 45.361 29.8178C44.7511 31.1739 44.2115 32.0156 43.6484 32.4833C42.2174 33.6758 39.4021 37.0661 38.7452 38.3989C38.3933 39.1237 37.6426 40.246 37.0561 40.9007C36.4931 41.5554 35.8831 42.3971 35.672 42.7479C35.4843 43.122 35.2966 43.3792 35.2262 43.3324C35.1793 43.2623 35.2497 42.1166 35.4139 40.7838C35.7658 37.674 35.7658 36.8557 35.4843 36.7855C35.062 36.6686 34.452 38.3053 34.194 40.3395C34.0063 41.5788 33.9594 43.4493 34.0767 45.3666L34.2174 48.4062L32.5518 45.7173C31.978 44.8167 31.4131 43.9161 31.0123 43.2773L31.012 43.2768L31.0118 43.2765C30.7574 42.8709 30.5693 42.571 30.4873 42.4439C29.8773 41.5554 29.5254 40.2226 29.7835 39.7784C29.9242 39.5212 29.9008 39.4043 29.6662 39.4043C29.1735 39.4043 28.2116 40.9709 27.5782 42.7712C27.2732 43.613 26.9682 44.3144 26.8744 44.3144C26.5225 44.3144 26.6867 35.9438 27.0621 33.2549C27.8363 27.9472 29.8773 21.4003 30.7922 21.4003C30.9799 21.4003 31.1441 21.3068 31.1441 21.1665C31.1441 20.7457 30.5342 20.9093 30.0415 21.4471C28.9389 22.6396 27.4844 26.3105 26.5694 30.2153C25.936 32.9042 25.5372 36.3647 25.3964 40.1291C25.2791 43.3792 25.326 43.917 25.7952 45.694C26.3348 47.6814 26.7571 48.2659 27.4844 47.9854C27.7424 47.8918 27.8597 47.5411 27.8597 46.8864C27.8597 46.372 28.1412 44.8288 28.4931 43.4493L29.1031 40.9709L29.3612 41.9996C29.6896 43.1921 31.6133 46.8864 33.3494 49.5753C34.5459 51.3991 34.5693 51.516 34.9682 54.3686C35.1793 55.9819 35.8362 59.9061 37.3611 65.9425C38.7085 71.2761 46.2829 76.567 48.1742 77.8881C48.4234 78.0622 48.5739 78.1674 48.5985 78.1946C48.8331 78.4518 49.1616 78.5921 49.3493 78.5219C49.5604 78.4518 49.6777 78.5453 49.6777 78.8025C49.6777 79.0363 49.8419 79.3403 50.0296 79.4806C50.2642 79.6442 50.4284 80.2755 50.4753 81.3745C50.5926 83.5724 52.2349 87.7811 53.5017 89.1606C54.3228 90.0491 56.0354 90.4232 57.9357 90.0959C59.1791 89.9088 59.531 89.7685 59.4137 89.488C59.3433 89.3009 59.789 89.5347 60.399 90.0023C67.5309 95.4269 74.7566 98.677 82.8739 100.08C86.0175 100.618 91.2257 100.922 94.0644 100.711C95.8854 100.592 96.3854 100.56 96.4779 100.738C96.5129 100.806 96.4895 100.904 96.4573 101.039C96.2931 101.693 96.5042 102.091 99.9529 107.913C102.698 112.519 102.932 112.823 105.982 115.933C112.457 122.596 119.519 127.764 127.519 131.762C135.049 135.503 147.073 138.613 158.064 139.595C169.055 140.577 176.949 130.523 176.926 127.951C176.879 124.42 176.386 122.105 175.19 119.861C174.017 117.686 173.242 116.938 169.723 114.6C165.806 112.005 163.389 109.877 161.794 107.609C160.785 106.183 160.41 104.569 160.41 103.704C160.41 103.143 161.137 101.88 162.216 101.623C163.202 101.366 163.389 101.389 164.492 101.927C165.149 102.231 166.861 103.026 168.269 103.704C169.7 104.359 171.084 105.013 171.366 105.154C172.196 105.384 172.547 107.003 172.737 107.88C172.779 108.076 172.814 108.235 172.844 108.334C173.172 109.549 174.726 111.119 175.729 111.654C177.49 112.592 181.829 112.718 183.026 111.432C183.331 111.105 184.342 110.702 184.55 110.824C184.759 110.946 185.512 111.958 185.512 112.776C185.536 114.179 186.263 115.465 187.811 116.751C190.744 119.183 193.019 119.767 195.319 118.692C196.515 118.131 197.496 117.911 197.496 117.911C197.496 117.911 198.474 119.155 198.533 119.58C198.993 122.902 203.928 124.295 205.242 124.435C205.543 124.465 206.129 124.337 206.724 124.207C207.52 124.032 208.332 123.854 208.503 124.046C208.838 124.423 202.896 134.217 202.075 135.456C194.263 147.147 179.061 154.302 160.457 155.05C148.375 155.541 133.524 152.174 120.645 146.048C112.41 142.097 105.114 137.257 97.3019 130.476C95.9412 129.307 94.3694 127.974 93.8063 127.507C93.2433 127.062 91.906 125.543 90.8738 124.14C89.1377 121.801 88.1524 120.96 88.1524 121.755C88.1524 122.105 89.2785 124.257 90.5688 126.384C91.0849 127.226 91.4134 127.811 91.2961 127.717C91.1788 127.624 90.8034 129.307 90.4515 131.458C89.3019 138.356 87.4017 145.16 85.4779 149.392C84.4222 151.683 82.398 153.395 81.788 153.862C79.5358 155.569 76.1642 156.336 71.4957 156.804C65.5837 157.389 56.88 156.079 50.2407 153.601C48.4812 152.946 43.9534 151.052 43.6484 150.842C43.6301 150.823 43.5262 150.151 43.3811 149.212L43.3807 149.209C43.3399 148.945 43.2959 148.66 43.2496 148.363C42.405 142.588 41.232 120.352 41.232 110.064C41.232 105.808 41.1851 104.873 40.9036 104.873C40.3171 104.873 40.0825 105.434 39.8244 107.445C39.2379 112.028 39.3552 135.947 39.9886 140.975L40.1294 142.12L39.3318 141.676C38.1118 140.975 33.4667 136.275 31.848 134.1C30.4775 132.241 29.6631 129.86 29.0537 128.079C28.9119 127.665 28.7813 127.283 28.6574 126.948C25.2556 117.548 26.4521 107.001 31.1441 97.5079C35.1324 89.4178 40.0356 84.9285 47.2144 82.754C48.3874 82.4033 49.4196 82.0292 49.5369 81.9356C49.9827 81.5148 47.1205 81.7252 45.5487 82.2162C40.4344 83.7828 35.0855 88.0617 31.4491 93.533C26.3348 101.202 24.0357 112.519 25.6545 122.176C26.0298 124.467 27.5547 129.424 27.977 129.775C28.0144 129.812 28.2074 130.215 28.4992 130.826C29.3061 132.513 30.8688 135.78 31.9887 137.257C33.3494 139.104 37.4549 143.126 39.1675 144.365L40.2467 145.136L40.4109 147.03C40.7159 150.655 40.8332 150.982 42.4754 152.198C46.5809 155.308 54.6747 158.207 61.9943 159.236C65.396 159.703 72.786 159.54 75.6012 158.932C77.4109 158.537 80.22 157.356 82.0088 156.603ZM154.897 136.976C141.266 135.784 124.797 129.307 112.879 119.299C107.859 115.067 101.337 106.837 98.7564 102.278C98.2168 101.342 97.818 100.898 97.3488 100.781C96.8561 100.641 97.2784 100.501 99.296 100.173C107.812 98.7237 116.094 95.1931 122.78 90.166L123.765 89.4412L124.047 90.1193C124.68 91.6391 127.12 93.1823 128.926 93.1823C129.653 93.1823 132.093 92.0833 133.571 91.0779L134.58 90.3998L135.401 91.2182C136.152 91.9664 136.293 92.0132 137.7 92.0132C139.319 92.0132 141.266 91.2883 142.345 90.2595L142.932 89.7218L144.598 90.8207C145.489 91.452 147.976 92.8315 150.111 93.9305C153.301 95.5672 156.68 97.4611 159.894 99.4252L160.41 99.7525L159.917 100.407C159.401 101.109 158.44 102.441 158.44 104.476C158.44 106.767 160.83 110.884 165.407 113.711C169.002 115.933 175.19 120.302 174.955 126.688C174.927 127.46 174.064 129.377 172.914 131.107C172.163 132.206 170.075 133.843 168.175 134.802C164.938 136.415 159.237 137.35 154.897 136.976ZM29.8069 32.0157C30.4403 32.156 30.8626 32.3664 30.7688 32.4599C30.4638 32.7639 28.845 32.6236 28.4697 32.2495C27.8832 31.6883 28.0239 31.2908 28.845 31.1272C29.2673 31.057 29.9008 30.7063 30.2527 30.3556C30.6046 30.0048 30.9095 29.8412 30.9095 29.9581C30.9095 30.262 29.7365 31.3376 29.15 31.5714C28.7747 31.7351 28.892 31.8052 29.8069 32.0157ZM39.1441 32.3898C39.8244 32.0157 39.6837 31.7585 38.886 31.8754C38.0884 31.9923 38.0414 31.8988 38.5576 31.1038C38.7687 30.7998 38.886 30.3556 38.8391 30.1218C38.7687 29.8178 38.6045 29.9581 38.2291 30.7063C37.9476 31.2441 37.5488 31.6883 37.3611 31.6883C36.7746 31.6883 36.7277 32.156 37.2907 32.3664C38.018 32.6704 38.581 32.6704 39.1441 32.3898ZM31.0268 19.6234C30.4638 19.7169 28.7043 20.4183 27.1559 21.1899C25.5841 21.9381 24.2468 22.5694 24.153 22.5461C21.7601 22.2889 25.0914 18.314 31.1441 14.2456C36.9388 10.3408 40.8567 8.28323 44.493 7.23105C46.7686 6.57636 49.3258 6.48283 50.0531 7.02061C50.4519 7.32457 50.3111 7.34796 48.5751 7.37134C44.8214 7.37134 40.4813 9.28864 33.4198 13.9884C29.76 16.4201 25.5137 19.9039 25.5137 20.4651C25.5137 20.582 26.194 20.3482 27.0386 19.9741C28.845 19.1557 30.6984 18.7348 31.5195 18.9219C32.3875 19.1557 32.1999 19.4597 31.0268 19.6234ZM40.1059 21.6342C42.3112 21.1899 42.405 21.1666 42.405 20.9327C42.405 20.8158 41.5605 20.6989 40.5048 20.6522L38.6045 20.582L40.364 18.5946C41.3259 17.4956 42.452 16.3967 42.8508 16.1395C43.7188 15.5783 43.7657 15.1808 43.0619 14.947L42.5223 14.7833L43.1088 14.5729C43.4373 14.456 44.0473 14.4092 44.4695 14.4794C45.103 14.5729 45.2437 14.5261 45.1733 14.1988C45.103 13.8715 44.8449 13.8013 43.6954 13.8247C40.3405 13.8715 38.9095 14.76 41.537 15.1808C42.2643 15.2977 42.8742 15.4848 42.8742 15.6017C42.8742 15.6952 42.7569 15.7888 42.6162 15.7888C42.1704 15.7888 38.3934 19.6 37.9241 20.5352C37.1969 21.9148 37.5957 22.1252 40.1059 21.6342ZM55.5897 12.5621C54.9093 12.6088 54.7451 12.7257 54.792 13.0531L54.7993 13.1007L54.7993 13.1007C54.8256 13.2735 54.8407 13.3729 54.8019 13.4031C54.7495 13.444 54.5986 13.3587 54.2436 13.158L54.1821 13.1232C53.7363 12.8894 53.6894 12.7725 53.9475 12.5855C54.1117 12.4452 54.5574 12.2347 54.9093 12.1646L55.5662 12.0009L55.0735 11.4865C54.8155 11.1826 54.6747 10.902 54.7451 10.8084C54.9328 10.6214 57.2319 10.8786 57.5603 11.1358C57.7011 11.2527 57.9122 11.2293 58.053 11.089C58.3814 10.7617 58.8272 11.0189 58.8272 11.5333C58.8272 11.8139 58.7568 11.8372 58.5457 11.6268C58.358 11.4398 58.1938 11.4398 57.9826 11.6034C57.7949 11.7671 57.6542 11.7671 57.5369 11.58C57.4665 11.4631 57.0207 11.3462 56.5515 11.3462C56.1184 11.3462 55.9138 11.3462 55.8721 11.4286C55.8349 11.5024 55.9284 11.6422 56.1058 11.9074C56.48 12.4901 56.4578 12.4919 55.5976 12.5614L55.5897 12.5621ZM52.0237 6.34253C52.0237 6.03857 51.7422 5.50079 51.3903 5.15006L50.7334 4.49538L54.2524 4.63567C56.1996 4.72919 58.4049 4.93963 59.1791 5.15006C59.9533 5.33712 60.8448 5.47741 61.1732 5.47741C61.6659 5.47741 61.572 5.38388 60.6571 4.89286C59.0618 4.07451 57.0207 3.67702 53.1029 3.39644C48.4109 3.06909 46.0414 3.51335 46.4871 4.68243C46.5575 4.91625 46.9329 5.03315 47.4959 5.03315C48.6455 5.03315 50.5223 5.71122 51.1557 6.34253C51.836 7.0206 52.0237 7.0206 52.0237 6.34253ZM40.5751 68.2573C42.4754 70.689 44.9857 73.4481 46.1587 74.3833C46.8625 74.9445 47.4724 75.4121 47.5194 75.4121C47.5428 75.4121 47.0267 74.3366 46.3698 73.0272C43.7188 67.7663 42.1704 62.5288 41.4432 56.4963C41.2789 55.1636 41.0209 54.0412 40.7394 53.5736C40.1763 52.6383 40.1763 51.4225 40.7628 50.2768C41.0678 49.6688 41.232 48.8973 41.232 48.0555V46.7695L40.1059 47.9386C39.0033 49.0843 37.9476 49.5519 37.9476 48.8505C37.9476 48.3361 39.6837 45.8576 40.5986 45.086C41.3259 44.4781 41.4197 44.2677 41.6543 42.4439C41.8185 41.3449 42.1939 39.4043 42.4989 38.1183C42.8273 36.8323 43.015 35.7333 42.9681 35.6866C42.8039 35.5229 37.2907 41.8335 36.54 43.8468C36.3752 44.2888 35.93 45.0626 35.5781 45.5303L34.9682 46.3108C34.9682 46.3108 35.1576 47.4038 35.367 48.7775C35.5785 50.1653 35.6777 51.1193 35.7661 51.969C35.8844 53.1057 35.9832 54.0558 36.3054 55.6078C36.6807 57.5251 37.0561 59.1852 37.15 59.3021C37.2203 59.4424 37.5253 60.518 37.8303 61.7104C38.4872 64.3526 39.5898 66.9713 40.5751 68.2573ZM135.777 90.3764L135.284 89.8854C135.284 89.8854 143.461 79.5313 144.926 75.7161C146.044 72.8046 146.702 71.979 147.59 71.979C148.087 71.979 148.492 72.0919 148.68 72.3725C149.008 72.8635 149.325 73.4715 148.902 75.5524C148.199 78.9194 147.119 81.1407 143.882 85.9339C143.131 87.0329 142.169 88.2487 141.747 88.6696C140.762 89.5815 138.545 90.5167 137.255 90.7272C136.433 90.8441 136.199 90.7973 135.777 90.3764Z" fill="#00160A"/>
<path id="Whites_4" d="M200.738 113.25C203.657 105.324 203.215 103.635 202.709 103.47C202.709 103.47 201.594 104.102 201.101 105.434C200.186 107.936 197.055 114.483 195.882 115.652C194.498 117.032 194.498 117.032 193.09 117.032C191.682 117.032 187.623 114.919 187.07 112.836C186.186 109.504 189.993 97.9288 190.087 97.2741L189.454 96.8298C189.031 97.2273 183.538 113.828 176.316 109.503C175.489 109.007 173.735 106.674 173.595 105.434C172.813 101.834 176.4 89.2425 177.01 86.6562C177.556 84.3413 180.398 82.1929 183.894 82.1929C189.266 82.1929 188.544 86.8733 190.951 88.5226C192.017 89.2535 193.77 87.9284 194.31 87.8279C197.336 87.2667 198.496 87.9201 200.714 89.675C202.427 91.0296 203.694 93.7107 205.089 94.6553C205.864 95.1801 206.686 94.4627 206.955 94.328C208.059 93.7757 210.427 94.1877 211.084 94.6553C212.047 95.0738 214.407 97.3346 214.779 98.6496C216.469 104.609 211.134 117.821 209.12 120.3C205.785 124.402 197.819 121.175 200.738 113.25Z" fill="white"/>
<path id="Shape" fill-rule="evenodd" clip-rule="evenodd" d="M65.8652 91.5327C72.2933 95.5777 78.9215 98.2198 86.4756 98.9447C92.4345 99.5058 100.469 98.7343 106.24 96.8637C111.096 95.2971 117.665 90.9574 122.052 87.2865C130.568 80.1784 135.941 69.0756 138.287 57.2912C138.615 55.6311 139.116 51.4581 139.093 47.3196C139.093 42.5029 136.966 29.3404 130.521 21.751C117.23 6.09779 95.3818 -0.953535 77.02 5.07136C70.3963 7.24474 63.3439 11.1825 58.0184 16.3264C51.3088 22.8499 46.3587 31.735 44.3881 40.8071C42.3236 50.3936 45.0091 61.8507 49.6777 71.2501C53.4078 78.7323 59.5544 87.5344 65.8652 91.5327ZM128.504 63.277C124.093 76.4876 112.598 86.3547 98.1464 89.3476C95.9412 89.7919 94.4163 89.9555 91.3195 90.0023C89.1377 90.0724 86.9559 90.0491 86.5102 90.0023C76.3988 88.7864 68.7039 85.0687 61.6189 78.0075C58.5222 74.8977 57.2084 73.2142 55.2847 69.894C52.2583 64.6331 50.6395 59.2553 50.1469 52.7786C48.4577 30.5893 64.3872 12.0943 86.8152 10.177C95.6127 9.42882 105.372 12.1177 112.786 17.3552C115.53 19.2959 120.504 24.2061 122.052 26.4975C122.686 27.4094 128.832 36.3646 129.912 41.5086C131.296 48.1957 130.756 56.5664 128.504 63.277Z" fill="white"/>
<path id="Shadow_3" fill-rule="evenodd" clip-rule="evenodd" d="M139.101 47.3196C139.101 63.0137 131.653 80.1715 122.04 87.4991C117.453 90.9951 111.46 95.2283 106.24 96.8637C98.5912 99.2605 86.4757 98.9447 86.4757 98.9447C86.4757 98.9447 98.8361 97.2979 103.417 95.4607C116.552 90.1923 123.722 82.1051 128.149 74.3455C136.889 59.0285 139.101 46.9383 139.101 47.3196Z" fill="#E7EAEE"/>
<path id="Shape_2" fill-rule="evenodd" clip-rule="evenodd" d="M86.7448 87.1966C80.481 86.4016 74.264 84.1804 69.2435 80.8836C66.2641 78.9429 61.7597 74.3834 59.5779 71.1334C56.4577 66.457 54.3932 61.4533 53.3844 56.0755C52.6572 52.1708 52.6806 46.1617 53.4079 42.6778C54.1586 39.1238 55.1205 36.4115 56.8331 32.9744C58.8272 28.9995 60.9386 26.0768 64.1058 22.9202C69.5016 17.5425 75.7655 14.1287 83.2258 12.492C85.6422 11.9776 94.3929 11.5567 94.6979 11.9542C94.7682 12.0711 95.2374 12.3751 95.7301 12.6323C96.2228 12.9129 97.5365 13.8949 98.6157 14.8536C100.234 16.2565 100.962 17.145 102.369 19.3428C103.331 20.8393 104.105 22.1954 104.105 22.3123C104.105 22.5695 104.856 23.0372 105.278 23.0372C105.865 23.0372 106.264 21.2835 106.381 18.1971C106.451 16.4903 106.592 15.0874 106.686 15.0874C107.014 15.0874 110.627 17.0748 112.316 18.1971C115.624 20.395 118.932 23.4814 121.372 26.7081C122.475 28.1578 122.639 28.5319 122.639 29.4204C122.639 30.2387 122.874 30.87 123.601 32.1327C125.431 35.3126 126.862 39.3108 127.73 43.73C128.293 46.6995 128.293 52.3111 127.706 55.4209C126.111 63.9786 121.372 72.4895 115.202 77.8907C109.97 82.4501 104.41 85.256 97.8415 86.6355C95.5893 87.1265 88.8328 87.4538 86.7448 87.1966ZM69.9708 71.2035C70.182 70.9697 70.3227 70.619 70.2523 70.4553C70.2312 70.4062 69.9375 70.2685 69.5075 70.0671C68.5052 69.5974 66.7626 68.7809 66.0074 67.9301C63.0044 64.5163 61.9018 61.9677 61.2215 56.7068C60.5646 51.5863 61.1164 48.1245 62.3006 42.5609C62.8783 39.8468 64.4137 37.605 65.369 36.2103C66.0185 35.2619 66.3998 34.7052 66.0295 34.6579C65.1145 34.5176 64.9738 34.5877 64.0119 35.4996C61.9474 37.4637 61.009 39.0303 60.0237 42.0465C58.4988 46.7696 58.2041 59.5337 61.2215 65.2879C64.2388 71.0421 69.4312 71.8114 69.9708 71.2035ZM103.331 51.5629C102.933 55.1952 101.243 60.4479 99.2726 62.7394C98.3576 63.8149 94.9991 65.6621 92.1641 65.288C89.4259 64.9266 87.2844 63.6512 85.4545 60.9156C83.8827 58.554 83.0709 55.6875 82.522 52.0773C81.5742 45.8431 85.7126 38.586 87.4956 36.7856C89.302 34.9385 90.5923 34.2838 92.2345 34.2604C93.8298 34.2604 94.8621 34.6111 96.4808 35.7568C99.4368 37.8144 104.105 44.5047 103.331 51.5629ZM71.7068 32.2262C72.1761 31.6884 72.2464 31.4312 72.1057 30.4258C72.0118 29.4905 71.8242 29.1164 71.3315 28.7189C70.4635 28.0175 69.3843 28.0175 68.5866 28.7657C68.0236 29.3035 67.9532 29.4905 68.0236 30.7765C68.094 32.156 68.1409 32.2496 68.9151 32.6704C69.9473 33.2316 70.9561 33.0679 71.7068 32.2262ZM86.346 17.7997C82.1232 20.8159 80.2933 22.0551 78.393 23.2242C76.8916 24.1595 76.4224 24.1829 76.4224 23.3411C76.4224 22.8969 76.7508 22.4059 77.5954 21.6343L78.7684 20.5587L76.4928 20.2547C73.9356 19.9274 71.4488 19.2259 70.9092 18.6882C70.0177 17.7763 70.7919 17.5658 73.3256 18.0335C74.4517 18.2205 76.6335 18.4543 78.1819 18.5011L80.9971 18.618L83.0381 17.145C87.519 13.9183 92.1642 12.0945 94.3929 12.6557C95.777 12.983 95.6128 13.3571 94.041 13.5442C92.2345 13.7546 91.1319 14.3625 86.346 17.7997Z" fill="white"/>
<path id="Whites_5" d="M92.3752 62.0846C92.3752 61.9677 92.516 61.8508 92.7037 61.8508C92.8914 61.8508 93.126 61.9677 93.1964 62.0846C93.2667 62.2249 93.126 62.3185 92.8679 62.3185C92.5864 62.3185 92.3752 62.2249 92.3752 62.0846Z" fill="white"/>
<path id="Whites_6" d="M93.7828 61.8741C93.7828 61.6169 94.3693 61.3831 95.0262 61.3831C95.5424 61.4064 95.5424 61.4064 95.0966 61.7338C94.5805 62.1313 93.7828 62.2014 93.7828 61.8741Z" fill="white"/>
<path id="Whites_7" d="M90.1465 61.2663C90.0761 61.0792 89.9823 60.7519 89.9119 60.5648C89.8415 60.331 89.9588 60.2141 90.2638 60.2141C90.5219 60.2141 90.733 60.3544 90.733 60.5415C90.733 60.7285 90.8034 61.0325 90.8738 61.2429C90.9676 61.5001 90.8972 61.617 90.6392 61.617C90.428 61.617 90.1934 61.4533 90.1465 61.2663Z" fill="white"/>
<path id="Whites_8" d="M91.3899 60.6816C91.2726 59.9802 91.5307 59.7463 92.3752 59.7463C92.6333 59.7463 92.8444 59.9802 92.9383 60.3777C93.126 61.0557 92.821 61.3831 91.9999 61.3831C91.6245 61.3831 91.4603 61.2194 91.3899 60.6816Z" fill="white"/>
<path id="Whites_9" d="M88.997 60.7985C88.5513 60.4478 88.5513 60.4478 89.0439 60.4478C89.3489 60.4478 89.5601 60.5881 89.5601 60.7985C89.5601 61.2194 89.5601 61.2194 88.997 60.7985Z" fill="white"/>
<path id="Whites_10" d="M93.7125 60.7751C93.4075 60.4712 93.5482 59.5593 93.9236 59.419C94.6039 59.1618 94.9089 59.2787 95.0497 59.8866C95.1435 60.2374 95.1904 60.5413 95.1435 60.5647C94.9558 60.7751 93.8532 60.9154 93.7125 60.7751Z" fill="white"/>
<path id="Whites_11" d="M95.8004 60.284C95.73 60.2139 95.6597 59.9099 95.6597 59.6294C95.6597 59.2319 95.8473 59.0682 96.4104 58.9513C96.903 58.8578 97.208 58.9045 97.3488 59.0916C97.5834 59.4657 97.5834 59.9333 97.3722 60.0502C96.95 60.284 95.9646 60.4243 95.8004 60.284Z" fill="white"/>
<path id="Whites_12" d="M87.9178 59.5593C87.9178 59.2788 88.129 59.0449 88.434 58.9748C89.0439 58.8111 89.0205 58.7877 89.1378 59.3957C89.1847 59.7464 89.0674 59.8867 88.5747 59.9335C88.0586 60.0036 87.9178 59.9101 87.9178 59.5593Z" fill="white"/>
<path id="Whites_13" d="M89.7008 59.5828C89.3723 59.2321 89.5835 58.5774 90.0292 58.5774C90.3342 58.5774 90.4985 58.7411 90.4985 59.0216C90.4985 59.4659 89.9589 59.84 89.7008 59.5828Z" fill="white"/>
<path id="Whites_14" d="M91.1084 58.8812C90.9208 58.437 91.3196 58.1096 92.0938 58.1096C92.4457 58.1096 92.6099 58.2499 92.6099 58.5539C92.6099 58.8111 92.3988 59.0449 92.0938 59.1384C91.3196 59.3255 91.2727 59.3255 91.1084 58.8812Z" fill="white"/>
<path id="Whites_15" d="M97.8885 58.8112C97.9588 58.6943 98.0761 58.5774 98.1465 58.5774C98.2169 58.5774 98.1935 58.6943 98.1231 58.8112C98.0527 58.9515 97.9354 59.045 97.865 59.045C97.7946 59.045 97.8181 58.9515 97.8885 58.8112Z" fill="white"/>
<path id="Whites_16" d="M93.2198 58.4136C93.0321 57.946 93.2667 57.7122 94.0174 57.5953C94.4397 57.5485 94.6274 57.642 94.6743 57.9694C94.8385 58.741 93.5013 59.1618 93.2198 58.4136Z" fill="white"/>
<path id="Whites_17" d="M87.5893 58.0161C87.3782 57.2445 87.4251 57.1743 88.0351 57.1743C88.3635 57.1743 88.6216 57.2678 88.6216 57.3848C88.6216 57.5017 88.692 57.7589 88.7624 57.9459C88.8328 58.1797 88.692 58.32 88.2932 58.3902C87.8474 58.4837 87.6832 58.3902 87.5893 58.0161Z" fill="white"/>
<path id="Whites_18" d="M95.425 57.759C95.425 57.3381 95.5893 57.1511 96.035 57.0342C96.6919 56.8705 97.0672 57.1978 97.0672 57.9461C97.0672 58.25 96.8796 58.3435 96.2461 58.3435C95.5189 58.3435 95.425 58.2734 95.425 57.759Z" fill="white"/>
<path id="Whites_19" d="M86.8855 57.7589C86.8151 57.5719 86.862 57.4082 86.9793 57.4082C87.1201 57.4082 87.214 57.5719 87.214 57.7589C87.214 57.946 87.167 58.1097 87.1201 58.1097C87.0732 58.1097 86.9793 57.946 86.8855 57.7589Z" fill="white"/>
<path id="Whites_20" d="M89.255 57.946C88.9266 57.6421 89.1143 56.9874 89.5366 56.8705C89.7946 56.8003 90.0527 56.8237 90.1231 56.8939C90.4046 57.1511 90.2404 57.8291 89.8885 57.9694C89.4427 58.1331 89.4427 58.1331 89.255 57.946Z" fill="white"/>
<path id="Whites_21" d="M97.6303 57.7824C97.3723 57.1043 97.6538 56.5899 98.3107 56.5198C98.8033 56.4497 98.9441 56.5432 98.9441 56.9173C98.9441 57.6889 98.686 58.1097 98.2168 58.1097C97.9588 58.1097 97.7007 57.9695 97.6303 57.7824Z" fill="white"/>
<path id="Whites_22" d="M90.8973 57.4784C90.6157 57.2212 90.7096 56.7536 91.1084 56.6133C91.5542 56.4496 92.4926 56.9173 92.2345 57.1745C91.9061 57.455 91.0615 57.6655 90.8973 57.4784Z" fill="white"/>
<path id="Whites_23" d="M92.9382 56.8939C92.7271 56.5665 93.4778 56.0054 94.0878 56.0054C94.3693 56.0054 94.4866 56.1457 94.4396 56.4029C94.3458 56.8705 93.1494 57.2446 92.9382 56.8939Z" fill="white"/>
<path id="Whites_24" d="M86.5102 56.7301C86.5102 56.6132 86.4399 56.356 86.3695 56.1456C86.2991 55.9352 86.3226 55.7715 86.4633 55.7715C86.7683 55.7715 87.0029 56.66 86.7214 56.847C86.6041 56.9172 86.5102 56.8704 86.5102 56.7301Z" fill="white"/>
<path id="Whites_25" d="M87.1437 56.1925C87.0029 55.6781 87.2844 55.304 87.824 55.304C88.129 55.304 88.434 56.2158 88.2463 56.5198C87.9882 56.9173 87.261 56.6835 87.1437 56.1925Z" fill="white"/>
<path id="Whites_26" d="M88.7858 56.3093C88.4339 55.9586 88.645 55.1169 89.1143 54.9999C89.4662 54.9064 89.6539 55.0233 89.8415 55.4442C89.9823 55.7482 90.0527 56.0521 90.0058 56.0989C89.7712 56.3093 88.9266 56.473 88.7858 56.3093Z" fill="white"/>
<path id="Whites_27" d="M95.1201 56.3093C94.8151 56.0053 94.9559 55.8183 95.6597 55.5611C96.2462 55.374 96.4104 55.3974 96.5277 55.678C96.7388 56.2391 95.5658 56.7769 95.1201 56.3093Z" fill="white"/>
<path id="Whites_28" d="M97.1846 55.7715C96.95 55.3974 97.2784 55.0701 97.8884 55.0701C98.6157 55.0701 98.8268 55.678 98.1699 55.8651C97.4661 56.0521 97.3488 56.0287 97.1846 55.7715Z" fill="white"/>
<path id="Whites_29" d="M99.1787 55.2102C99.1787 54.8595 99.601 54.4854 99.7887 54.6725C99.9529 54.8361 99.6245 55.5376 99.3899 55.5376C99.2726 55.5376 99.1787 55.3973 99.1787 55.2102Z" fill="white"/>
<path id="Whites_30" d="M86.2052 54.9064C86.1114 54.8363 86.041 54.5323 86.0645 54.2751C86.0645 53.8308 86.0879 53.8308 86.2991 54.3452C86.5337 54.9064 86.4868 55.187 86.2052 54.9064Z" fill="white"/>
<path id="Whites_31" d="M86.6509 54.5557C86.4398 53.7374 86.4633 53.6672 87.0732 53.6672C87.7535 53.6672 88.1758 54.5324 87.6597 54.8597C87.1201 55.187 86.8152 55.0935 86.6509 54.5557Z" fill="white"/>
<path id="Whites_32" d="M94.7212 55.0233C94.7212 54.9531 94.8385 54.579 94.9793 54.1581C95.3077 53.2229 96.035 53.1761 96.1992 54.088C96.2696 54.4387 96.2931 54.7427 96.2696 54.7661C96.1523 54.9063 94.7212 55.1168 94.7212 55.0233Z" fill="white"/>
<path id="Whites_33" d="M88.3166 54.4388C88.2227 54.3687 88.1523 54.0881 88.1523 53.8309C88.1523 53.4568 88.2227 53.4334 88.5043 53.6672C88.692 53.8309 88.8562 54.1115 88.8562 54.2751C88.8562 54.6259 88.5746 54.7194 88.3166 54.4388Z" fill="white"/>
<path id="Whites_34" d="M96.7623 53.9711C96.6215 53.2463 96.9265 52.9189 97.6538 53.0124C98.0057 53.0592 98.123 53.2696 98.123 53.784C98.123 54.3686 98.0292 54.5089 97.5131 54.5556C96.9969 54.6258 96.8796 54.5089 96.7623 53.9711Z" fill="white"/>
<path id="Whites_35" d="M99.0614 54.0647C98.7564 53.1294 98.8503 52.8488 99.4837 52.7787C100.047 52.7085 100.117 52.7787 100.117 53.3866C100.117 53.901 99.9764 54.1114 99.6245 54.2049C99.3664 54.2751 99.1084 54.2049 99.0614 54.0647Z" fill="white"/>
<path id="Whites_36" d="M85.8533 52.7319C85.8533 52.2876 85.9005 52.1006 85.9713 52.3344C86.0185 52.5448 86.0185 52.9189 85.9713 53.1527C85.9005 53.3632 85.8533 53.1761 85.8533 52.7319Z" fill="white"/>
<path id="Whites_37" d="M86.4399 53.0359C86.1349 52.7553 86.2757 51.8434 86.651 51.7031C87.1906 51.4926 87.4487 51.7498 87.4487 52.5215C87.4487 53.0125 87.3314 53.1995 87.0264 53.1995C86.7918 53.1995 86.5103 53.1294 86.4399 53.0359Z" fill="white"/>
<path id="Whites_38" d="M87.8475 52.4046C87.7536 52.0538 87.7067 51.6797 87.8005 51.6096C88.0351 51.3758 88.1759 51.7499 88.1055 52.4279L88.0351 53.0826L87.8475 52.4046Z" fill="white"/>
<path id="Whites_39" d="M95.425 52.2408C95.425 51.9836 95.5423 51.8434 95.6596 51.9135C95.8004 51.9836 95.8942 52.2175 95.8942 52.4045C95.8942 52.5916 95.8004 52.7318 95.6596 52.7318C95.5423 52.7318 95.425 52.5214 95.425 52.2408Z" fill="white"/>
<path id="Whites_40" d="M96.4808 52.5449C96.1524 52.1942 96.4104 51.5629 96.95 51.4226C97.6304 51.2589 97.6539 51.2589 97.865 51.937C98.0058 52.3579 97.9119 52.4514 97.3019 52.5449C96.9266 52.615 96.5512 52.5917 96.4808 52.5449Z" fill="white"/>
<path id="Whites_41" d="M98.6391 52.1006C98.3811 51.8668 98.4515 51.0952 98.7095 51.0952C98.8503 51.0952 98.9441 51.0017 98.9441 50.8614C98.9441 50.7445 98.8034 50.6276 98.6157 50.6276C98.2169 50.6276 97.8884 49.4819 98.2169 49.1545C98.6391 48.7337 99.1083 49.1779 99.3899 50.3236C99.5541 50.9316 99.7183 51.633 99.7887 51.8668C99.8825 52.1708 99.7887 52.2643 99.3429 52.2643C99.038 52.2643 98.7095 52.1942 98.6391 52.1006Z" fill="white"/>
<path id="Whites_42" d="M99.9059 50.8612C99.7417 50.1598 99.3194 48.7568 99.0145 47.728C98.5453 46.2316 98.4983 45.8575 98.7564 45.6938C98.9206 45.5769 99.1318 45.4834 99.2021 45.4834C99.4602 45.4834 100.399 50.2767 100.305 51.2119L100.234 52.1472L99.9059 50.8612Z" fill="white"/>
<path id="Whites_43" d="M85.6188 50.7445C85.6188 50.3704 85.666 50.2301 85.7367 50.4639C85.7839 50.6744 85.7839 51.0017 85.7367 51.1654C85.666 51.3057 85.6188 51.142 85.6188 50.7445Z" fill="white"/>
<path id="Whites_44" d="M86.0878 50.6977C86.1817 49.8794 86.862 49.6923 87.0497 50.4405C87.2139 51.0484 87.2609 50.9783 86.5571 51.2121C86.0644 51.3524 86.0175 51.3056 86.0878 50.6977Z" fill="white"/>
<path id="Whites_45" d="M95.9882 50.4873C95.8005 49.8092 96.1993 49.4117 96.9501 49.5052C97.5131 49.5754 97.7242 50.5808 97.255 50.8848C96.6685 51.2589 96.129 51.0952 95.9882 50.4873Z" fill="white"/>
<path id="Whites_46" d="M87.4486 50.3001C87.4486 49.9026 87.5659 49.6921 87.824 49.6921C88.0586 49.6921 88.1524 49.8558 88.1055 50.2065C87.9882 50.9548 87.4486 51.0249 87.4486 50.3001Z" fill="white"/>
<path id="Whites_47" d="M85.3607 49.3182C85.3607 49.061 85.4315 48.9909 85.5023 49.1779C85.573 49.3416 85.5494 49.552 85.4787 49.6222C85.4079 49.7157 85.3371 49.5754 85.3607 49.3182Z" fill="white"/>
<path id="Whites_48" d="M85.8064 49.2481C85.8064 48.8974 85.9472 48.7571 86.2991 48.7571C86.6275 48.7571 86.7448 48.874 86.6979 49.1546C86.5806 49.7625 85.8064 49.8326 85.8064 49.2481Z" fill="white"/>
<path id="Whites_49" d="M87.0968 49.0375C86.9325 48.6166 86.9325 48.6166 87.6363 48.4296C88.0586 48.2893 88.1525 48.3594 88.1525 48.7101C88.1525 49.2713 87.3079 49.5519 87.0968 49.0375Z" fill="white"/>
<path id="Whites_50" d="M95.5892 48.7103C95.425 48.1257 95.73 47.8218 96.5511 47.8218C96.95 47.8218 97.0673 47.9621 97.0673 48.4063C97.0673 48.757 96.9265 48.9908 96.7388 48.9908C96.5511 48.9908 96.2461 49.061 96.0585 49.1311C95.8473 49.2013 95.6831 49.061 95.5892 48.7103Z" fill="white"/>
<path id="Whites_51" d="M97.6304 48.1724C97.4427 47.7047 97.7242 47.354 98.2638 47.354C98.5922 47.354 98.7095 47.5177 98.7095 47.9385C98.7095 48.3594 98.5922 48.5231 98.2403 48.5231C97.9823 48.5231 97.7008 48.3594 97.6304 48.1724Z" fill="white"/>
<path id="Whites_52" d="M85.5718 47.8452C85.5718 47.3542 86.1114 46.793 86.346 47.0502C86.4398 47.1203 86.5102 47.4477 86.5102 47.7517C86.5102 48.1258 86.3694 48.2894 86.041 48.2894C85.736 48.2894 85.5718 48.1258 85.5718 47.8452Z" fill="white"/>
<path id="Whites_53" d="M86.8621 47.5646C86.6744 46.98 86.8855 46.7228 87.6832 46.6059C88.4105 46.5124 88.6451 47.284 88.0116 47.7516C87.4017 48.1959 87.0263 48.1257 86.8621 47.5646Z" fill="white"/>
<path id="Whites_54" d="M95.3547 47.4242C95.1905 47.2839 95.1201 46.4188 95.2609 46.4188C95.2844 46.4188 95.6363 46.3253 96.0585 46.2084C96.7623 45.9979 96.8093 46.0213 96.7858 46.6526C96.7623 47.1203 96.6216 47.3541 96.2697 47.4476C95.6363 47.6113 95.5424 47.6113 95.3547 47.4242Z" fill="white"/>
<path id="Whites_55" d="M94.4867 46.8863C94.4867 46.7226 94.5575 46.6525 94.6519 46.7226C94.7226 46.8162 94.7226 46.9565 94.6519 47.05C94.5575 47.1201 94.4867 47.05 94.4867 46.8863Z" fill="white"/>
<path id="Whites_56" d="M97.1142 46.5123C97.1846 46.1148 97.9118 45.5303 98.076 45.7173C98.1464 45.7875 98.2637 46.0681 98.3341 46.372C98.4983 46.8397 98.4279 46.8864 97.7711 46.8864C97.208 46.8864 97.0438 46.7929 97.1142 46.5123Z" fill="white"/>
<path id="Whites_57" d="M85.8064 46.4889C85.8064 46.372 85.9237 46.1382 86.041 45.9511C86.2287 45.6706 86.2756 45.6939 86.2756 46.1382C86.2756 46.4188 86.1818 46.6526 86.041 46.6526C85.9237 46.6526 85.8064 46.5825 85.8064 46.4889Z" fill="white"/>
<path id="Whites_58" d="M86.5101 45.9745C86.5101 45.3198 87.0028 45.1093 87.3782 45.6004C87.6127 45.9511 87.6127 46.068 87.3782 46.2317C86.8855 46.5356 86.5101 46.4421 86.5101 45.9745Z" fill="white"/>
<path id="Whites_59" d="M93.6421 45.6704C93.2198 45.2028 93.2198 45.1794 93.6186 45.3197C93.8532 45.4133 94.1582 45.4834 94.2755 45.4834C94.3928 45.4834 94.4867 45.6471 94.4867 45.8341C94.4867 46.3251 94.1582 46.2784 93.6421 45.6704Z" fill="white"/>
<path id="Whites_60" d="M88.5982 45.6471C87.5894 44.8755 87.4486 43.1453 88.387 43.1453C89.0205 43.1453 89.607 44.1273 89.5131 45.0392C89.4428 45.8809 89.1612 46.068 88.5982 45.6471Z" fill="white"/>
<path id="Whites_61" d="M95.0262 45.7875C95.12 45.7173 95.2608 45.7173 95.3546 45.7875C95.425 45.881 95.3546 45.9511 95.1904 45.9511C95.0262 45.9511 94.9558 45.881 95.0262 45.7875Z" fill="white"/>
<path id="Whites_62" d="M98.5687 44.8756C98.6391 44.6652 98.7095 44.4547 98.7095 44.408C98.7095 44.3612 98.8268 44.3145 98.9441 44.3145C99.0849 44.3145 99.1787 44.5249 99.1787 44.7821C99.1787 45.0627 99.0145 45.2497 98.8033 45.2497C98.5453 45.2497 98.4749 45.1328 98.5687 44.8756Z" fill="white"/>
<path id="Whites_63" d="M86.2756 44.8054C86.2756 44.2677 86.7683 43.3792 87.0498 43.3792C87.5424 43.3792 87.1905 44.8756 86.6744 44.9691C86.4633 45.0159 86.2756 44.9457 86.2756 44.8054Z" fill="white"/>
<path id="Whites_64" d="M91.5541 44.5482L90.8503 44.3845L91.4838 44.2208C92.1407 44.0337 92.6099 44.174 92.6099 44.5715C92.6099 44.8054 92.5864 44.8054 91.5541 44.5482Z" fill="white"/>
<path id="Whites_65" d="M90.733 43.426C90.733 42.4673 91.2726 42.327 91.7653 43.1688C92.0937 43.7299 92.1172 43.8469 91.8122 43.8469C91.6245 43.8469 91.3195 43.917 91.1084 43.9872C90.8269 44.1041 90.733 43.9638 90.733 43.426Z" fill="white"/>
<path id="Whites_66" d="M94.8152 43.7534C93.7595 43.2857 93.0791 42.0465 93.0791 40.5735C93.0791 39.5213 93.1729 39.2641 93.8064 38.6795C94.2052 38.3054 94.604 38.0015 94.7213 38.0015C95.2375 38.0015 97.1377 39.8019 97.7712 40.9242L98.4984 42.2102L97.7242 43.0285C96.8328 43.9638 95.8474 44.221 94.8152 43.7534Z" fill="white"/>
<path id="Whites_67" d="M89.912 43.1454C89.8416 43.0285 89.8885 42.9116 90.0058 42.9116C90.1466 42.9116 90.2639 43.0285 90.2639 43.1454C90.2639 43.2857 90.217 43.3793 90.17 43.3793C90.0997 43.3793 89.9824 43.2857 89.912 43.1454Z" fill="white"/>
<path id="Whites_68" d="M86.8386 42.7711C86.909 42.5607 86.9794 42.3503 86.9794 42.3035C86.9794 42.2567 87.1905 42.21 87.4486 42.21C88.0351 42.21 88.0585 42.5841 87.472 42.9114C86.8386 43.2388 86.6744 43.2154 86.8386 42.7711Z" fill="white"/>
<path id="Whites_69" d="M88.692 42.4907C88.1525 42.4206 87.9882 42.1166 88.3401 41.9062C88.434 41.836 88.8563 41.7191 89.2785 41.6256C89.912 41.4853 90.0293 41.5321 90.0293 41.9296C90.0293 42.4206 89.5366 42.631 88.692 42.4907Z" fill="white"/>
<path id="Whites_70" d="M90.4984 41.6957C90.4984 41.4151 90.5219 41.2514 90.5688 41.2982C90.5923 41.345 90.7799 41.5788 90.9442 41.8126C91.2257 42.14 91.2022 42.2101 90.8738 42.2101C90.6392 42.2101 90.4984 42.0231 90.4984 41.6957Z" fill="white"/>
<path id="Whites_71" d="M87.214 41.5319C87.214 41.3916 87.3313 41.228 87.4486 41.1578C87.5894 41.0877 87.6832 41.1812 87.6832 41.3682C87.6832 41.5787 87.5894 41.7423 87.4486 41.7423C87.3313 41.7423 87.214 41.6488 87.214 41.5319Z" fill="white"/>
<path id="Whites_72" d="M88.0821 41.1814C87.8944 40.7138 89.5601 40.1994 89.8416 40.6436C90.0527 41.0177 89.8416 41.1814 88.9501 41.3684C88.4105 41.4853 88.1759 41.4386 88.0821 41.1814Z" fill="white"/>
<path id="Whites_73" d="M90.2873 40.433C90.2873 40.1758 90.3581 40.1056 90.4289 40.2927C90.4997 40.4564 90.4761 40.6668 90.4053 40.7369C90.3345 40.8305 90.2638 40.6902 90.2873 40.433Z" fill="white"/>
<path id="Whites_74" d="M88.2932 40.059C88.5747 39.5446 89.3958 38.7029 89.607 38.7029C89.8416 38.7029 89.865 39.8018 89.6304 39.9421C89.5131 39.9889 89.1377 40.1058 88.7858 40.1993C88.2697 40.3162 88.1524 40.2928 88.2932 40.059Z" fill="white"/>
<path id="Whites_75" d="M90.17 39.5211C89.9119 38.8196 90.0292 38.5157 90.5923 38.4221C91.1788 38.3052 91.1788 38.3052 90.8034 39.0301C90.3342 39.9654 90.3577 39.9654 90.17 39.5211Z" fill="white"/>
<path id="Whites_76" d="M90.0293 38.1182C90.0293 38.0714 90.4985 37.7441 91.085 37.4167C91.7888 36.9958 92.2815 36.8556 92.6334 36.9491C93.0557 37.0894 92.9384 37.1829 91.9061 37.6739C90.7566 38.1883 90.0293 38.3754 90.0293 38.1182Z" fill="white"/>
<path id="Whites_77" d="M103.05 17.4022C102.416 16.4903 101.079 15.0172 100.117 14.1287C99.1552 13.2402 98.5218 12.5154 98.7095 12.5154C99.2256 12.5154 103.167 13.5909 104.152 14.0118C104.973 14.3625 104.997 14.4093 104.786 15.1341C104.668 15.555 104.575 16.6072 104.575 17.4723C104.575 18.3608 104.504 19.0623 104.41 19.0623C104.293 19.0623 103.707 18.314 103.05 17.4022Z" fill="white"/>
<path id="Whites_78" d="M55.3082 88.2252C54.3463 87.7342 54.1352 87.4536 52.9152 85.0453C51.1557 81.6316 51.1088 80.8366 52.7745 82.7773C53.4314 83.5489 54.9563 85.1389 56.1527 86.3079C58.1938 88.272 58.2876 88.4123 57.6073 88.3188C57.1146 88.2486 56.9269 88.2954 57.0442 88.4824C57.3257 88.9033 56.4343 88.7864 55.3082 88.2252Z" fill="white"/>
</g>
<path id="Stroke_2" fill-rule="evenodd" clip-rule="evenodd" d="M94.6248 130.825C94.4301 130.364 94.6472 129.833 95.1096 129.639L95.615 129.425C100.529 127.33 103.35 126.071 105.267 124.072C107.183 122.073 107.412 119.137 107.773 117.35C107.871 116.86 108.985 117.721 109.477 117.82C109.969 117.918 110.288 118.395 110.189 118.886C109.756 121.034 108.59 123.081 106.713 125.025C104.843 126.963 101.221 129.039 95.8147 131.308C95.3522 131.502 94.8195 131.286 94.6248 130.825Z" fill="#00160A"/>
<path id="Stroke_3" fill-rule="evenodd" clip-rule="evenodd" d="M116.848 37.5316C117.279 37.2758 117.836 37.4168 118.093 37.8465C120.663 42.1491 122.039 47.0676 122.039 52.1848C122.039 67.6876 109.43 80.2551 93.8749 80.2551C89.7417 80.2551 85.7327 79.3665 82.0617 77.6738C81.6063 77.4638 79.886 75.7917 81.6186 76.4718C83.3512 77.1518 90.0548 78.6782 93.9232 78.6782C108.475 78.6782 118.769 66.6874 118.769 52.1848C118.769 47.3959 116.848 43.1453 116.532 38.7729C116.495 38.266 116.416 37.7874 116.848 37.5316Z" fill="#00160A"/>
<path id="Stroke_4" fill-rule="evenodd" clip-rule="evenodd" d="M26.8684 106.064C27.1896 105.68 27.7624 104.903 28.148 105.223C29.7296 106.536 31.4174 108.057 33.2228 108.351C35.1015 108.657 37.3303 108.657 39.9063 108.346C40.4044 108.286 40.8571 108.639 40.9174 109.136C40.9777 109.632 40.6228 110.084 40.1247 110.144C37.3891 110.474 34.9919 110.474 32.9302 110.138C30.7951 109.791 28.8096 108.854 26.985 107.339C26.5995 107.019 26.5473 106.448 26.8684 106.064Z" fill="#00160A"/>
<path id="Whites_79" d="M46.1587 74.3832C44.9857 73.448 42.4754 70.6889 40.5751 68.2572C39.5898 66.9712 38.4872 64.3525 37.8303 61.7103C37.5253 60.5179 37.2203 59.4423 37.1499 59.302C37.0561 59.1851 36.6807 57.525 36.3054 55.6077C35.7423 52.8954 35.8614 52.0216 35.367 48.7774C35.1576 47.4037 34.9681 46.3107 34.9681 46.3107L35.5781 45.5302C35.93 45.0625 36.3752 44.2887 36.54 43.8467C37.2907 41.8334 42.8039 35.5228 42.9681 35.6865C43.015 35.7332 42.8273 36.8322 42.4989 38.1182C42.1939 39.4042 41.8185 41.3449 41.6543 42.4438C41.4197 44.2676 41.3259 44.478 40.5986 45.0859C39.6836 45.8575 37.9476 48.336 37.9476 48.8504C37.9476 49.5518 39.0033 49.0842 40.1059 47.9385L41.232 46.7694V48.0554C41.232 48.8972 41.0678 49.6688 40.7628 50.2767C40.1763 51.4224 40.1763 52.6382 40.7394 53.5735C41.0209 54.0411 41.2789 55.1635 41.4432 56.4962C42.1704 62.5287 43.7188 67.7662 46.3698 73.0271C47.0267 74.3365 47.5428 75.412 47.5194 75.412C47.4724 75.412 46.8625 74.9444 46.1587 74.3832Z" fill="white"/>
</g>
<path id="Shape_3" fill-rule="evenodd" clip-rule="evenodd" d="M143.776 88.81L145.466 89.5582C145.816 89.7193 149.68 91.5696 154.321 93.7923C161.804 97.3758 171.308 101.927 171.366 101.927C171.46 101.927 171.9 100.913 171.999 99.7292C172.234 97.1806 173.102 93.7201 174.111 91.3118C174.58 90.2362 174.955 88.892 174.955 88.7751C174.955 88.7217 174.574 88.5684 173.949 88.3174C173.206 88.0186 172.118 87.5814 170.92 87.0096C165.008 84.1804 153.442 78.4051 152.011 77.54C150.603 76.7216 150.322 76.6515 150.322 77.1893C150.322 77.8907 148.891 81.1408 147.788 82.8944C147.202 83.853 146.052 85.5833 145.231 86.729L143.776 88.81ZM170.967 97.7184C171.64 98.107 170.474 98.677 170.193 98.7706C168.535 98.9109 166.583 98.6002 164.984 97.6716C164.148 97.0807 157.565 93.4357 153.199 91.0178C151.202 89.9124 149.669 89.0635 149.36 88.8801C148.375 88.2955 147.436 87.6642 147.272 87.4772C146.779 86.8459 147.249 86.5653 148.633 86.6822C149.465 86.7525 169.514 96.879 170.967 97.7184Z" fill="white"/>
<path id="Whites_80" d="M126.932 90.9142C126.322 90.7037 125.665 90.2361 125.243 89.6983L124.539 88.8332L127.026 86.3781C130.85 82.637 133.665 78.5485 136.199 73.9891C137.043 72.4692 139.554 66.34 139.859 65.6619C140.328 64.6799 140.68 64.3058 141.689 63.7446C142.885 63.0432 144.246 62.8093 144.832 63.2068C145.958 63.955 145.958 66.3166 144.832 70.385C143.589 74.8509 141.923 78.0542 138.475 82.6604C137.935 83.3619 136.926 84.7414 136.199 85.7C134.252 88.272 132.985 89.5113 131.272 90.4699C129.583 91.4052 128.598 91.5221 126.932 90.9142Z" fill="white"/>
<path id="Whites_81" d="M135.777 90.3765L135.284 89.8854C135.284 89.8854 143.461 79.5313 144.926 75.7161C146.044 72.8046 146.702 71.979 147.59 71.979C148.087 71.979 148.492 72.092 148.68 72.3725C149.008 72.8636 149.325 73.4715 148.902 75.5525C148.199 78.9194 147.119 81.1407 143.882 85.9339C143.131 87.0329 142.169 88.2487 141.747 88.6696C140.762 89.5815 138.545 90.5167 137.255 90.7272C136.433 90.8441 136.199 90.7973 135.777 90.3765Z" fill="white"/>
<path id="Shadow_4" fill-rule="evenodd" clip-rule="evenodd" d="M149.512 79.5495C149.985 78.4707 150.322 77.5297 150.322 77.1892C150.322 76.6515 150.603 76.7216 152.011 77.54C153.442 78.4051 165.008 84.1804 170.92 87.0095C173.125 88.0617 174.955 88.6582 174.955 88.7751C174.955 88.892 149.01 80.6932 149.512 79.5495Z" fill="#E7EAEE"/>
<path id="Shadow_5" fill-rule="evenodd" clip-rule="evenodd" d="M69.2435 80.8835C66.2641 78.9428 61.7597 74.3834 59.5779 71.1333C56.4577 66.457 54.3932 61.4533 53.3844 56.0755C52.6572 52.1707 52.6806 46.1616 53.4079 42.6778C54.1586 39.1237 55.1205 36.4115 56.8331 32.9743C58.8272 28.9995 60.9386 26.0767 64.1058 22.9202C67.2115 19.8248 53.4079 32.6256 56.8331 55.5289C59.5779 74.7219 71.3743 82.2827 69.2435 80.8835Z" fill="#E7EAEE"/>
</g>
</svg>
