<svg width="235" height="233" viewBox="0 0 235 233" fill="none" xmlns="http://www.w3.org/2000/svg">
<g id="Group 3">
<g id="Group 2">
<g id="Group 9">
<path id="Blob" fill-rule="evenodd" clip-rule="evenodd" d="M110.875 182.693C77.7168 175.636 33.5364 161.632 40.7965 113.579C48.0566 65.5272 79.1781 46.9995 117.681 46.9995C156.183 46.9995 199.927 75.2467 191.339 133.763C182.752 192.28 144.034 189.75 110.875 182.693ZM219.866 124.769C221.235 111.399 219.78 98.169 215.872 85.7673L227.022 79.9592C228.902 78.9807 229.608 76.7064 228.604 74.8794L213.381 47.2429C212.373 45.4158 210.034 44.7282 208.155 45.7068L197.005 51.5149C188.552 41.4816 178.033 32.9737 165.831 26.6731L169.488 14.9044C170.106 12.9205 168.952 10.8262 166.911 10.2265L136.051 1.15205C134.01 0.552289 131.858 1.67415 131.24 3.65805L127.582 15.4268C113.83 14.0956 103.811 18.9958 91.0578 22.7938L85.0848 11.9509C84.0788 10.1239 81.7398 9.4363 79.8613 10.4148L51.4413 25.2188C49.5624 26.1973 48.8554 28.4715 49.8616 30.2982L55.8344 41.1414C45.5167 49.3609 33.1832 56.1046 26.704 67.9726L14.6014 64.4141C12.5615 63.8143 10.4076 64.9362 9.79084 66.9197L0.45949 96.9298C-0.157275 98.9137 0.996386 101.008 3.03621 101.608L15.1389 105.166C13.77 118.537 15.2248 131.767 19.1304 144.168L7.98016 149.977C6.10134 150.955 5.39425 153.229 6.40053 155.057L21.6241 182.693C22.6304 184.52 24.9691 185.208 26.8476 184.229L37.9982 178.421C46.4506 188.454 56.9699 196.962 69.1743 203.263L65.5149 215.032C64.8981 217.015 66.0518 219.11 68.0916 219.709L98.953 228.782C100.991 229.383 103.146 228.261 103.764 226.277L107.422 214.509C121.171 215.84 134.777 214.425 147.53 210.627L153.502 221.471C154.509 223.297 156.848 223.984 158.728 223.006L187.148 208.202C189.024 207.224 189.734 204.95 188.726 203.123L182.752 192.28C193.072 184.06 201.819 173.831 208.3 161.963L220.401 165.522C222.442 166.121 224.598 165 225.212 163.016L234.543 133.006C235.161 131.022 234.008 128.928 231.966 128.328L219.866 124.769Z" fill="#CFDA18"/>
<path id="Highlights" fill-rule="evenodd" clip-rule="evenodd" d="M160.155 57.2995L159.08 57.2642L159.05 58.1927C158.999 59.8633 159.023 61.6505 159.048 63.5991C159.066 64.9571 159.085 66.3934 159.08 67.9234L158.902 70.9445C158.907 73.7591 158.927 77.6766 158.963 82.6972L159.08 96.9893C158.29 97.244 157.696 97.9072 157.577 98.7139C156.926 98.8105 156.425 99.3486 156.425 99.996C156.425 100.454 156.676 100.857 157.054 101.088L156.594 102.169C156.39 102.649 156.053 103.059 155.62 103.356C153.72 104.655 152.602 106.759 152.629 108.985C152.629 109.044 152.631 109.103 152.633 109.162C152.642 109.375 152.83 109.54 153.054 109.534C153.278 109.526 153.453 109.346 153.444 109.133C153.442 109.081 153.441 109.029 153.44 108.976C153.417 107.003 154.767 105.136 156.452 103.984C157.01 103.602 157.443 103.075 157.705 102.459L157.842 101.294H158.419C158.419 101.294 158.62 102.343 158.62 103.163C158.62 103.983 158.419 105.608 158.419 105.608H157.754C156.993 105.608 156.373 106.198 156.373 106.924C156.373 107.65 156.993 108.24 157.754 108.24H157.85C158.611 108.24 158.873 107.861 158.873 106.924C158.873 106.434 158.928 106.083 159.752 106.083C160.575 106.083 160.363 106.924 160.363 106.924C160.363 107.65 160.982 108.24 161.744 108.24H161.84C162.601 108.24 163.221 107.65 163.221 106.924C163.221 106.198 161.936 105.585 161.174 105.585C161.174 105.585 160.972 104.108 160.972 103.356C160.972 102.722 161.174 101.425 161.174 101.425H160.363C160.363 101.425 160.532 102.635 160.532 103.374C160.532 104.112 160.363 105.585 160.363 105.585C160.363 105.585 159.915 105.663 159.702 105.668C159.489 105.672 159.231 105.608 159.231 105.608C159.231 105.608 159.053 104.098 159.053 103.374C159.053 102.649 159.231 101.294 159.231 101.294H160.363H161.174H161.751L162.247 102.459C162.496 103.045 163.242 103.559 163.81 103.95L163.882 104C165.529 105.137 166.154 106.971 166.154 108.906C166.154 110.54 165.481 112.072 164.259 113.219C163.037 114.366 161.419 115.333 159.702 115.309C158.34 115.29 156.948 114.56 155.859 113.77C154.805 113.004 153.44 110.909 153.213 110.426C152.986 109.942 152.879 110.705 152.945 110.909C153.382 112.257 154.277 113.475 155.464 114.337C156.692 115.229 158.153 115.712 159.69 115.733C161.627 115.76 163.451 115.063 164.829 113.77C166.207 112.476 166.966 110.749 166.966 108.906C166.966 106.724 165.857 104.656 164 103.374C163.548 103.062 163.202 102.645 163 102.169L162.54 101.088C162.918 100.857 163.169 100.454 163.169 99.996C163.169 99.3486 162.668 98.8105 162.016 98.714C161.882 97.8044 161.145 97.0772 160.203 96.9124L160.151 96.9124L159.528 83.6219C159.491 78.563 159.978 68.4516 159.978 68.4516C159.986 64.5632 160.035 61.1541 160.125 58.2246L160.155 57.2995ZM161.744 107.467C161.43 107.467 161.174 107.223 161.174 106.924V106.083C161.174 106.083 162.409 106.323 162.409 106.924C162.409 107.475 162.194 107.472 161.916 107.468L161.915 107.468C161.891 107.467 161.865 107.467 161.84 107.467H161.744ZM156.874 106.924C156.926 107.68 158.539 108.009 158.42 106.924V106.083C158.42 106.083 156.821 106.168 156.874 106.924ZM158.405 98.6985C158.554 98.098 159.122 97.6498 159.797 97.6498C160.472 97.6498 161.04 98.098 161.189 98.6985H158.405ZM161.806 99.4717H161.633H157.961H157.788C157.484 99.4717 157.237 99.7069 157.237 99.996C157.237 100.285 157.484 100.52 157.788 100.52H161.806C162.11 100.52 162.357 100.285 162.357 99.996C162.357 99.7069 162.11 99.4717 161.806 99.4717ZM168.762 102.838H169.471C169.671 102.838 169.833 102.682 169.833 102.489C169.833 102.297 169.671 102.141 169.471 102.141H168.762C168.562 102.141 168.399 102.297 168.399 102.489C168.399 102.682 168.562 102.838 168.762 102.838ZM168.198 105.305L168.881 105.585C169.073 105.663 169.166 105.886 169.089 106.083C169.012 106.279 168.793 106.374 168.601 106.296L167.918 106.016C167.726 105.938 167.632 105.715 167.71 105.518C167.768 105.369 167.909 105.278 168.058 105.278C168.105 105.278 168.152 105.286 168.198 105.305ZM167.589 99.6212L168.228 99.1223C168.409 98.9816 168.454 98.7028 168.329 98.4994C168.252 98.3739 168.128 98.3066 168.002 98.3066C167.924 98.3066 167.845 98.3324 167.776 98.3862L167.137 98.8851C166.956 99.0258 166.911 99.3046 167.036 99.5079C167.161 99.7111 167.408 99.7618 167.589 99.6212ZM150.474 102.838H149.765C149.565 102.838 149.402 102.682 149.402 102.489C149.402 102.297 149.565 102.141 149.765 102.141H150.474C150.674 102.141 150.836 102.297 150.836 102.489C150.836 102.682 150.674 102.838 150.474 102.838ZM151.038 105.305L150.355 105.585C150.163 105.663 150.069 105.886 150.146 106.083C150.223 106.279 150.442 106.374 150.635 106.296L151.317 106.016C151.51 105.938 151.603 105.715 151.526 105.518C151.467 105.369 151.326 105.278 151.177 105.278C151.131 105.278 151.083 105.286 151.038 105.305ZM151.647 99.6212L151.007 99.1222C150.827 98.9816 150.782 98.7028 150.907 98.4995C150.984 98.3739 151.108 98.3066 151.234 98.3066C151.311 98.3066 151.39 98.3324 151.459 98.3862L152.099 98.8851C152.279 99.0257 152.324 99.3046 152.199 99.5078C152.074 99.711 151.827 99.7619 151.647 99.6212Z" fill="#FFB61D"/>
<path id="Whites" d="M107.204 154.627C111.157 155.638 113.186 158.047 114.899 160.289C116.616 162.532 112.842 161.465 110.759 160.655C108.677 159.846 103.662 156.852 103.662 156.852L87.0383 151.963V144.486L92.0098 144.203C92.0098 144.203 103.247 153.614 107.204 154.627Z" fill="white"/>
<path id="Whites_2" d="M89.9779 99.8645C93.5336 112.951 95.3688 125.472 95.6591 137.483C95.6591 137.483 98.989 137.888 98.5732 140.721C98.1574 143.555 89.4152 151.245 89.4152 151.245L86.3864 141.482L85.2538 105.507L89.9779 99.8645Z" fill="white"/>
<path id="Highlights_2" fill-rule="evenodd" clip-rule="evenodd" d="M91.1911 106.562L89.1494 105.245C89.019 105.161 88.847 105.226 88.8001 105.378L88.0881 107.677C88.0288 107.869 88.2059 108.048 88.3895 107.983L91.1432 107C91.331 106.933 91.3596 106.671 91.1911 106.562ZM90.9439 106.942L88.4348 107.648L89.1817 105.557L90.9439 106.942Z" fill="#FFB61D"/>
<path id="Highlights_3" fill-rule="evenodd" clip-rule="evenodd" d="M90.295 123.118L88.2533 121.801C88.1229 121.717 87.9508 121.782 87.9039 121.934L87.192 124.233C87.1327 124.425 87.3098 124.604 87.4934 124.539L90.2471 123.556C90.4349 123.489 90.4635 123.227 90.295 123.118ZM90.0477 123.498L87.5387 124.204L88.2856 122.113L90.0477 123.498Z" fill="#FFB61D"/>
<path id="Highlights_4" fill-rule="evenodd" clip-rule="evenodd" d="M89.2216 132.42L89.3735 130.042C89.3833 129.89 89.239 129.778 89.0807 129.814L86.6768 130.364C86.4766 130.41 86.4054 130.649 86.5555 130.771L88.8074 132.599C88.9609 132.723 89.209 132.616 89.2216 132.42ZM88.7594 132.402L86.8764 130.641L89.1123 130.225L88.7594 132.402Z" fill="#FFB61D"/>
<path id="Highlights_5" fill-rule="evenodd" clip-rule="evenodd" d="M93.0913 130.666L90.6459 130.518C90.4898 130.508 90.3744 130.649 90.4116 130.803L90.9773 133.14C91.0245 133.335 91.2701 133.404 91.3955 133.258L93.2751 131.068C93.4032 130.919 93.2931 130.678 93.0913 130.666ZM93.0726 131.115L91.2626 132.946L90.8341 130.772L93.0726 131.115Z" fill="#FFB61D"/>
<path id="Highlights_6" fill-rule="evenodd" clip-rule="evenodd" d="M91.2035 142.787L89.0098 143.848C88.8697 143.916 88.8419 144.094 88.9533 144.209L90.6451 145.958C90.786 146.104 91.0344 146.044 91.0679 145.857L91.5698 143.047C91.604 142.855 91.3846 142.7 91.2035 142.787ZM91.4184 143.186L90.7924 145.651L89.3033 143.977L91.4184 143.186Z" fill="#FFB61D"/>
<path id="Highlights_7" fill-rule="evenodd" clip-rule="evenodd" d="M92.2787 136.165L90.085 137.226C89.9449 137.293 89.9171 137.471 90.0286 137.586L91.7204 139.336C91.8613 139.481 92.1097 139.422 92.1432 139.234L92.645 136.424C92.6793 136.233 92.4598 136.077 92.2787 136.165ZM92.4937 136.563L91.8677 139.029L90.3786 137.354L92.4937 136.563Z" fill="#FFB61D"/>
<path id="Whites_3" d="M78.0572 107.734L75.645 114.815C70.1313 131.033 67.4162 139.265 67.3347 140.036C67.284 140.516 67.5829 140.874 68.044 140.996C68.321 141.069 68.6599 141.065 69.0807 141.005C69.7355 140.91 70.6109 140.671 71.6679 140.316C72.4849 140.042 73.3678 139.712 74.2622 139.356L74.6384 139.205C74.7606 139.156 74.8795 139.107 74.9946 139.06L75.5922 138.809L75.7628 138.736L75.862 138.583C76.0383 138.31 76.2893 137.827 76.5368 137.166C76.7544 136.585 76.9278 135.963 77.0419 135.305L77.0818 135.057C77.1173 134.815 77.4581 134.257 78.161 133.302L78.651 132.65C79.0528 132.124 79.8258 131.118 79.9036 131.016L80.3582 130.417C80.7926 129.841 81.1719 129.327 81.5424 128.808C83.401 126.206 84.7144 123.928 85.4891 121.737C86.1464 119.877 86.3769 118.155 86.1166 116.571C85.7181 114.154 85.8707 111.844 86.4525 109.676C86.9359 107.875 85.407 106.213 83.2029 105.602C80.9256 104.971 78.7558 105.686 78.0572 107.734Z" fill="white"/>
<path id="Whites_4" d="M82.0943 97.262C83.4377 98.6486 84.565 99.7059 85.476 100.434C87.0106 101.661 89.2104 102.975 92.0755 104.378C83.3117 106.351 77.9604 106.741 76.0215 105.548C76.0215 105.548 76.8291 101.853 77.9895 100.27C78.8534 99.0908 82.0943 97.262 82.0943 97.262Z" fill="white"/>
<path id="Whites_5" d="M96.035 79.447C94.2141 86.172 89.2391 93.1929 83.9414 91.8371C78.6437 90.4809 75.7117 81.2892 77.5326 74.5642C79.3534 67.8392 85.1242 63.4868 90.4219 64.8427C95.7196 66.1985 97.8558 72.7224 96.035 79.447Z" fill="white"/>
<path id="Whites_6" d="M97.2469 81.5918C95.1863 89.2879 89.556 97.3227 83.5607 95.771C77.5654 94.219 74.2473 83.6999 76.3079 76.0038C78.3685 68.3076 84.8993 63.3267 90.8946 64.8784C96.89 66.4301 99.3076 73.896 97.2469 81.5918Z" fill="white"/>
<path id="Shadow" fill-rule="evenodd" clip-rule="evenodd" d="M87.679 65.7637C91.7644 65.9894 94.7459 67.2945 96.4174 69.5943L96.6058 69.8602C97.4325 71.0203 98.1275 71.7504 98.4315 73.9461L98.4607 74.1795C98.6343 75.624 98.6852 77.1477 98.596 77.6534C98.5478 77.8671 98.4536 77.9416 98.3347 77.919C98.0646 77.8677 97.3654 76.6594 96.237 74.294L95.2899 75.372C94.7746 75.9509 93.6818 76.4966 93.0341 76.9068C92.3863 77.3169 87.679 65.7637 87.679 65.7637Z" fill="#E7EAEE"/>
<path id="Whites_7" fill-rule="evenodd" clip-rule="evenodd" d="M91.8038 87.6098C94.0787 88.5324 95.8068 89.7307 96.265 89.2323C96.7232 88.734 95.1606 87.2163 93.9464 85.1551C92.6754 83.1053 91.4681 80.5234 91.2424 79.473L90.6645 76.8179C88.9742 78.8923 87.3915 85.852 91.8038 87.6098Z" fill="white"/>
<path id="Whites_8" d="M118.252 214.348L118.129 221.731H113.81L112.517 213.26L118.252 214.348Z" fill="white"/>
<path id="Whites_9" d="M70.9575 175.089C70.9575 175.089 98.9774 174.487 107.786 173.252C117.564 171.88 122.911 168.639 125.038 169.022C126.034 169.201 131.915 170.215 144.188 171.484C149.378 172.021 162.852 172.104 162.852 172.104L168.081 161.28C168.081 161.28 131.282 154.096 119.648 157.206C115.989 158.184 108.064 159.595 98.6417 159.08C90.4941 158.634 68.3348 154.449 68.3348 154.449C68.3348 154.449 59.3879 157.572 61.0074 165.252C62.6269 172.932 70.9575 175.089 70.9575 175.089Z" fill="white"/>
<path id="Shadow_2" fill-rule="evenodd" clip-rule="evenodd" d="M165.083 165.911L166.805 161.061C166.805 161.061 130.069 154.397 118.435 157.507C114.775 158.485 111.468 160.098 102.046 159.582C98.4388 159.385 92.2717 158.564 83.5445 157.12C79.1297 156.389 78.4205 156.659 81.8903 158.866C89.9364 163.982 107.834 162.776 124.073 160.471C154.254 156.186 165.083 165.911 165.083 165.911Z" fill="#E7EAEE"/>
<path id="Whites_10" d="M113.377 216.024C111.549 217.988 109.126 221.223 110.374 224.461L132.02 230.937C132.02 230.937 132.851 228.508 131.604 226.486C130.353 224.461 118.543 216.472 118.543 216.472L113.377 216.024Z" fill="white"/>
<path id="Shadow_3" fill-rule="evenodd" clip-rule="evenodd" d="M123.369 220.411C123.512 220.373 123.659 220.455 123.698 220.594C123.737 220.734 123.652 220.877 123.509 220.915C122.804 221.101 122.34 221.534 122.176 222.083C121.965 222.792 121.942 223.517 122.182 224.678C122.211 224.82 122.117 224.957 121.971 224.986C121.825 225.014 121.684 224.922 121.655 224.781C121.398 223.539 121.424 222.729 121.66 221.937C121.876 221.211 122.485 220.643 123.369 220.411Z" fill="#E7EAEE"/>
<path id="Shadow_4" fill-rule="evenodd" clip-rule="evenodd" d="M111.449 224.809L132.744 230.902C132.744 230.902 135.449 230.35 132.652 229.963C129.779 229.566 112.956 222.075 111.106 223.44C110.843 223.634 111.286 224.386 111.449 224.809Z" fill="#E7EAEE"/>
<path id="Whites_11" d="M58.3876 173.544C58.3876 173.544 67.9967 176.493 75.7345 177.599C83.4724 178.704 98.907 179.334 98.907 179.334C98.907 179.334 103.726 181.881 104.037 183.061C104.158 183.52 104.888 189.591 106.907 197.348C107.856 200.996 112.931 217.495 112.931 217.495L119.648 214.604C119.648 214.604 119.378 184.279 115.091 174.221C110.803 164.163 66.7289 154.394 66.7289 154.394C66.7289 154.394 57.3749 152.748 54.8283 160.187C52.2818 167.626 58.3876 173.544 58.3876 173.544Z" fill="white"/>
<path id="Shadow_5" fill-rule="evenodd" clip-rule="evenodd" d="M114.006 216.449L120.723 213.558C120.544 193.341 119.024 179.88 116.166 173.175C116.166 173.175 119.087 208.871 114.006 216.449Z" fill="#E7EAEE"/>
<path id="Whites_12" d="M172.579 166.309C174.251 168.401 177.106 171.283 180.602 170.651L190.919 151.046C190.919 151.046 188.264 149.904 186 150.747C183.732 151.594 173.759 161.714 173.759 161.714L172.579 166.309Z" fill="white"/>
<path id="Shadow_6" fill-rule="evenodd" clip-rule="evenodd" d="M127.766 223.892C127.873 223.792 128.043 223.796 128.146 223.9C128.249 224.004 128.245 224.17 128.138 224.269C127.513 224.852 127.397 225.827 127.756 226.415C127.831 226.54 127.789 226.7 127.661 226.773C127.534 226.847 127.369 226.806 127.293 226.682C126.81 225.888 126.957 224.645 127.766 223.892Z" fill="#E7EAEE"/>
<path id="Shadow_7" fill-rule="evenodd" clip-rule="evenodd" d="M125.57 222.168C125.678 222.069 125.848 222.074 125.95 222.18C126.052 222.285 126.046 222.45 125.938 222.549L125.793 222.685C124.662 223.767 124.338 224.713 125.334 225.727C125.436 225.832 125.432 225.997 125.325 226.097C125.217 226.197 125.047 226.193 124.944 226.088C124.209 225.338 124.058 224.528 124.384 223.718C124.608 223.159 125 222.689 125.57 222.168Z" fill="#E7EAEE"/>
<path id="Shadow_8" fill-rule="evenodd" clip-rule="evenodd" d="M115.223 221.826C115.84 222.973 119.116 222.502 118.546 219.329C118.277 217.828 113.514 218.649 115.223 221.826Z" fill="#E7EAEE"/>
<path id="Shadow_9" fill-rule="evenodd" clip-rule="evenodd" d="M178.556 171.015C182.886 166.204 185.374 155.384 188.939 151.661C190.198 150.347 191.83 150.052 190.073 153.163C186.858 158.856 180.68 171.015 180.68 171.015C180.353 171.174 179.948 171.015 179.583 171.015H178.556Z" fill="#E7EAEE"/>
<path id="Whites_13" d="M107.204 154.626C111.157 155.638 113.186 158.046 114.899 160.289C116.616 162.532 112.842 161.465 110.759 160.655C108.677 159.846 104.693 156.774 104.693 156.774L107.204 154.626Z" fill="white"/>
<path id="Whites_14" d="M71.1918 145.52C71.1918 145.52 93.4471 154.817 96.5834 154.829C99.7161 154.841 107.405 158.471 107.82 161.305C108.326 164.752 94.9167 159.686 94.9167 159.686C94.9167 159.686 64.9479 159.686 59.9549 154.829C54.9587 149.972 58.2882 139.853 58.2882 139.853L71.1918 145.52Z" fill="white"/>
<path id="Whites_15" d="M65.7795 102.211C65.7795 102.211 71.1919 105.448 72.0234 115.972C72.855 126.496 69.5251 139.043 69.5251 139.043C69.5251 139.043 71.6076 140.662 72.0234 142.282C72.4392 143.901 71.1739 146.038 71.1739 146.038C71.1739 146.038 58.7047 151.996 57.872 152.4C57.0398 152.805 53.7099 151.591 53.7099 148.353C53.7099 145.115 54.9587 142.282 54.9587 142.282C55.5562 120.92 52.045 100.187 65.7795 102.211Z" fill="white"/>
<path id="Whites_16" fill-rule="evenodd" clip-rule="evenodd" d="M87.8266 79.8174C89.1069 78.1504 91.8128 77.6076 92.5349 80.2394C92.5349 80.2394 93.0897 81.8274 91.9715 82.8085C88.5459 85.8143 86.5464 81.4845 87.8266 79.8174Z" fill="white"/>
<path id="Whites_17" fill-rule="evenodd" clip-rule="evenodd" d="M94.9759 81.6258C96.1921 80.0421 98.7628 79.5264 99.4488 82.0267C99.4488 82.0267 99.9758 83.5353 98.9135 84.4674C95.6591 87.3229 93.7596 83.2095 94.9759 81.6258Z" fill="white"/>
<path id="Whites_18" d="M85.0167 101.898C85.0167 101.898 85.0167 121.354 85.3106 132.227C85.6045 143.099 83.0417 153.811 78.1455 162.189C73.2493 170.567 73.9157 182.551 70.3065 183.442C41.759 190.488 49.445 104.261 60.0076 98.7505C70.5702 93.2404 74.0593 92.0732 74.0593 92.0732" fill="white"/>
<path id="Highlights_8" fill-rule="evenodd" clip-rule="evenodd" d="M70.3759 107.357L67.9157 110.929C67.7117 111.225 67.8658 111.629 68.2192 111.724L71.502 112.606C71.8836 112.709 72.2445 112.389 72.1745 112.01L71.3518 107.555C71.2663 107.092 70.645 106.966 70.3759 107.357ZM70.9106 107.906L71.6453 112.102L68.7906 110.929L70.9106 107.906Z" fill="#FFB61D"/>
<path id="Highlights_9" fill-rule="evenodd" clip-rule="evenodd" d="M62.4603 103.868L59.5611 108.394C59.3759 108.683 59.5198 109.064 59.8533 109.168L64.9155 110.746C65.337 110.878 65.7322 110.485 65.5879 110.078L63.425 103.974C63.2775 103.558 62.6996 103.494 62.4603 103.868ZM63.1479 104.42L64.629 110.078L60.2399 108.394L63.1479 104.42Z" fill="#FFB61D"/>
<path id="Highlights_10" fill-rule="evenodd" clip-rule="evenodd" d="M60.6742 138.106L62.6463 145.313C62.7675 145.756 63.3744 145.844 63.6228 145.455L66.555 140.857C66.7175 140.602 66.6267 140.267 66.3561 140.123L61.4518 137.513C61.0372 137.293 60.5526 137.662 60.6742 138.106ZM61.1937 138.32L65.7396 140.582L63.1659 145.179L61.1937 138.32Z" fill="#FFB61D"/>
<path id="Highlights_11" fill-rule="evenodd" clip-rule="evenodd" d="M56.725 164.57L57.8003 169.511C57.8989 169.964 58.5103 170.078 58.7741 169.692L61.6791 165.441C61.8934 165.128 61.7069 164.703 61.3257 164.637L57.3453 163.947C56.9698 163.882 56.646 164.207 56.725 164.57ZM57.6632 164.492L61.1127 165.681L58.1362 168.986L57.6632 164.492Z" fill="#FFB61D"/>
<path id="Highlights_12" fill-rule="evenodd" clip-rule="evenodd" d="M66.0443 163.525L67.1196 168.465C67.2183 168.918 67.8297 169.032 68.0934 168.646L70.9985 164.396C71.2128 164.082 71.0262 163.658 70.645 163.592L66.6647 162.902C66.2892 162.837 65.9653 163.162 66.0443 163.525ZM66.5419 163.954L70.5579 163.847L67.2531 167.976L66.5419 163.954Z" fill="#FFB61D"/>
<path id="Highlights_13" fill-rule="evenodd" clip-rule="evenodd" d="M61.0262 153.416L62.1015 158.357C62.2002 158.81 62.8115 158.924 63.0753 158.538L65.9803 154.288C66.1947 153.974 66.0081 153.55 65.6269 153.483L61.6465 152.794C61.2711 152.728 60.9472 153.054 61.0262 153.416ZM61.5522 153.308L65.1741 154.347L62.2691 157.9L61.5522 153.308Z" fill="#FFB61D"/>
<g id="Group 11">
<path id="Stroke" fill-rule="evenodd" clip-rule="evenodd" d="M180.047 169.403C179.777 169.916 179.334 170.13 178.743 170.162C176.638 170.276 174.97 169.373 173.481 168.058C172.917 167.559 172.416 166.992 171.851 166.494C171.453 166.145 171.026 165.917 170.406 166.133C169.93 166.299 169.372 166.237 168.852 166.288C167.68 166.404 166.511 166.556 165.336 166.639C164.587 166.692 164.569 167.314 164.393 167.742C163.996 168.711 163.699 169.721 163.383 170.72C163.26 171.109 163.065 171.262 162.616 171.257C160.377 171.23 158.138 171.232 155.899 171.25C154.879 171.258 153.859 171.377 152.84 171.354C150.925 171.312 149.007 171.252 147.098 171.11C145.25 170.972 143.413 170.713 141.569 170.522C140.275 170.387 138.972 170.316 137.682 170.146C136.183 169.948 134.696 169.66 133.2 169.436C132.451 169.324 131.69 169.291 130.941 169.184C129.656 169 128.371 168.809 127.094 168.577C125.909 168.363 124.795 168.585 123.679 168.943C121.508 169.641 119.331 170.321 117.153 170.999C116.766 171.119 116.651 171.218 116.826 171.676C117.468 173.354 118.069 175.051 118.591 176.768C118.96 177.98 119.215 179.228 119.451 180.472C119.741 181.997 119.983 183.532 120.199 185.068C120.364 186.242 120.469 187.424 120.577 188.605C120.715 190.106 120.845 191.607 120.949 193.11C121.053 194.607 121.14 196.105 121.198 197.605C121.297 200.15 121.371 202.697 121.45 205.243C121.498 206.785 121.528 208.327 121.58 209.869C121.595 210.316 121.743 210.775 121.673 211.205C121.62 211.529 121.383 211.982 121.111 212.084C120.411 212.347 120.209 212.853 120.215 213.55C120.223 214.44 120.338 215.331 120.314 216.22C120.299 216.786 120.522 217.181 120.945 217.481C122.869 218.846 124.812 220.185 126.734 221.551C127.647 222.199 128.547 222.867 129.422 223.562C130.358 224.307 131.277 225.076 132.17 225.871C133.059 226.662 133.533 227.629 133.683 228.836C133.799 229.772 133.676 230.641 133.515 231.531C133.432 231.995 133.16 232.185 132.664 232.027C130.581 231.366 128.503 230.693 126.41 230.063C122.954 229.023 119.488 228.013 116.025 226.991C114.791 226.627 113.557 226.263 112.322 225.903C111.565 225.683 111.405 225.023 111.264 224.425C110.865 222.726 111.381 221.18 112.302 219.755C112.866 218.883 113.524 218.068 114.14 217.228C114.644 216.542 114.514 215.84 114.265 215.098C113.453 212.682 112.655 210.262 111.888 207.833C111.13 205.435 110.38 203.033 109.693 200.615C108.968 198.06 108.31 195.486 107.647 192.914C107.288 191.523 106.95 190.125 106.659 188.719C106.442 187.667 106.319 186.597 106.148 185.536C105.944 184.269 105.822 182.98 105.486 181.746C105.342 181.215 104.812 180.73 104.35 180.345C103.343 179.507 102.188 178.883 100.932 178.456C100.622 178.35 100.285 178.278 99.9582 178.266C98.4003 178.208 96.8407 178.194 95.283 178.133C93.7614 178.073 92.2404 177.991 90.7211 177.891C89.1541 177.789 87.5883 177.666 86.0241 177.529C84.3498 177.383 82.6695 177.267 81.0073 177.033C79.2452 176.786 77.4992 176.426 75.7506 176.094C75.1819 175.985 74.7664 176.321 74.6783 177.101C74.4854 178.806 73.8898 180.39 73.1823 181.941C72.672 183.06 71.7093 183.619 70.5216 183.81C69.6739 183.946 68.8054 184.076 67.9526 184.045C65.5255 183.955 63.3609 183.177 61.4356 181.68C58.9936 179.781 57.5648 177.244 56.3483 174.54C55.8032 173.328 55.1014 172.171 54.6736 170.924C54.2088 169.569 53.9737 168.139 53.6501 166.739C53.3983 165.65 53.1413 164.561 52.9295 163.464C52.762 162.596 52.6565 161.717 52.5292 160.842C52.3602 159.68 52.1934 158.518 52.0327 157.355C51.9795 156.97 51.9269 156.583 51.9103 156.196C51.8582 154.983 51.8327 153.77 51.7798 152.558C51.7056 150.858 51.5672 149.159 51.5441 147.459C51.5046 144.55 51.5086 141.641 51.5445 138.732C51.5602 137.455 51.6713 136.176 51.7893 134.903C51.9235 133.456 52.1269 132.014 52.2752 130.568C52.381 129.535 52.4142 128.496 52.5359 127.465C52.7144 125.953 52.9104 124.442 53.159 122.94C53.4547 121.153 53.7928 119.373 54.1503 117.597C54.8268 114.236 55.6139 110.895 56.9023 107.702C57.7232 105.667 58.5799 103.592 60.2556 102.056C60.9808 101.391 61.9887 101.008 62.89 100.536C65.3636 99.2414 67.8502 97.9699 70.3246 96.6764C70.4403 96.6159 70.5396 96.4401 70.5585 96.3063C70.6241 95.8425 70.595 95.3598 70.7121 94.9115C70.7884 94.6195 70.9991 94.2992 71.2481 94.1226C72.0828 93.5305 72.9574 92.9907 73.8279 92.4478C73.9837 92.3507 74.2043 92.2656 74.3755 92.2925C75.2933 92.4366 75.7537 91.8874 76.0683 91.2117C76.4943 90.2966 76.8831 89.3606 77.2136 88.4091C77.761 86.8334 78.313 85.2537 78.7271 83.6427C78.87 83.0869 78.6501 82.424 78.5211 81.8252C78.2585 80.6069 78.0406 79.3661 77.6178 78.1984C77.3475 77.4518 76.8005 76.7746 76.2777 76.1446C74.9262 74.5156 74.2163 72.6912 74.4436 70.6008C74.5422 69.6931 74.9426 68.8473 75.6408 68.1878C76.4625 67.4117 77.3048 66.6564 78.129 65.8829C78.7299 65.3189 78.6868 64.8878 77.9044 64.3365C76.8095 63.565 75.7595 62.7314 74.712 61.8985C73.8174 61.1871 73.4325 60.1708 73.1956 59.129C72.8732 57.7116 72.8345 56.2817 73.429 54.8983C74.3798 52.6858 75.7499 50.8598 78.2579 50.1713C80.4684 49.5646 82.6735 49.6057 84.6573 50.8242C86.4599 51.9314 87.6048 53.5805 88.1084 55.6159C88.6994 58.0045 88.0267 60.1541 86.7853 62.1986C86.6813 62.3699 86.6707 62.5947 86.6167 62.7946C86.8013 62.8286 86.9848 62.8848 87.1706 62.893C89.5581 62.9988 91.9313 63.2565 94.0697 64.3632C96.8765 65.8157 98.6418 68.1179 99.4204 71.1143C99.537 71.5628 99.536 72.045 99.5512 72.5128C99.6032 74.1079 99.6077 75.7054 99.7045 77.2978C99.7247 77.6302 99.9864 78.0382 100.266 78.2511C101.608 79.2731 102.064 81.7759 100.816 83.2573C100.692 83.4056 100.585 83.5687 100.463 83.7188C99.9834 84.3057 99.2879 84.5906 98.5958 84.4707C98.0058 84.3685 97.9559 84.5616 97.7612 84.985C97.3457 85.8881 96.8476 86.7619 96.3109 87.6041C95.5915 88.7329 94.8568 89.8604 94.0249 90.9108C93.5225 91.5452 92.8437 92.0557 92.2074 92.5797C91.4357 93.2152 90.6196 93.7996 89.8337 94.4194C89.4417 94.7285 89.012 94.8881 88.511 94.8178C87.9917 94.745 87.6994 95.0291 87.5474 95.438C87.2537 96.228 86.9882 97.0295 86.7564 97.8385C86.7076 98.009 86.8111 98.2576 86.9171 98.4273C87.8437 99.9105 88.7641 101.398 89.7323 102.856C90.5181 104.039 91.4115 105.155 92.1718 106.352C92.6421 107.093 92.9537 107.928 93.3345 108.722C93.9989 110.107 94.6775 111.486 95.3124 112.884C95.4431 113.172 95.4787 113.54 95.4331 113.854C95.3667 114.311 94.9032 114.457 94.4008 114.162C93.817 113.819 93.2674 113.418 92.7209 113.02C92.3825 112.773 92.0781 112.482 91.7565 112.213C91.7193 112.182 91.6695 112.165 91.6255 112.142C91.6185 112.196 91.5989 112.252 91.6065 112.305C91.6965 112.92 91.7687 113.538 91.8896 114.147C92.0144 114.776 92.2045 115.393 92.3359 116.021C92.5969 117.269 92.8492 118.518 93.0828 119.771C93.3455 121.18 93.5982 122.591 93.8264 124.005C93.9437 124.732 93.9836 125.471 94.0847 126.201C94.2374 127.305 94.4294 128.404 94.5723 129.508C94.6504 130.112 94.6675 130.723 94.7019 131.332C94.7489 132.161 94.78 132.992 94.8289 133.821C94.9496 135.867 95.0715 137.913 95.2045 139.958C95.2374 140.465 95.5438 140.855 96.0134 141C97.3491 141.413 98.2826 142.929 98.0578 144.195C98.0056 144.489 97.9383 144.793 97.8052 145.059C97.4857 145.695 97.9025 146.057 98.3168 146.388C98.9896 146.926 99.6908 147.431 100.394 147.932C102.062 149.121 103.742 150.294 105.41 151.483C106.921 152.56 108.589 153.309 110.378 153.84C111.815 154.266 113.037 155.074 114.185 156.005C114.75 156.462 115.238 157.139 116.131 156.972C117.396 156.736 118.657 156.48 119.918 156.227C120.299 156.15 120.672 156.039 121.054 155.975C122.385 155.752 123.171 154.836 123.954 153.889C124.537 153.184 125.187 152.532 125.793 151.845C126.986 150.494 128.166 149.132 129.359 147.781C129.951 147.109 130.561 146.451 131.16 145.785C132.847 143.905 134.524 142.017 136.222 140.146C137.112 139.165 138.038 138.217 138.944 137.25C139.188 136.989 139.448 136.735 139.641 136.441C139.934 135.994 140.233 135.856 140.806 136.036C142.058 136.431 142.036 136.356 141.16 137.289C139.592 138.962 138.077 140.681 136.533 142.375C135.778 143.203 134.998 144.009 134.249 144.843C132.936 146.305 131.642 147.784 130.331 149.249C129.401 150.288 128.459 151.318 127.517 152.348C126.788 153.145 126.049 153.933 125.323 154.732C125.259 154.801 125.209 154.995 125.232 155.009C125.409 155.117 125.609 155.277 125.796 155.27C127.318 155.212 128.837 155.099 130.359 155.048C131.498 155.01 132.641 155.01 133.78 155.048C135.239 155.097 136.701 155.159 138.154 155.294C139.773 155.445 141.384 155.688 142.998 155.887C144.654 156.091 146.314 156.259 147.964 156.501C149.612 156.742 151.247 157.068 152.892 157.334C154.254 157.555 155.627 157.718 156.987 157.949C158.722 158.242 160.448 158.584 162.18 158.893C163.397 159.11 164.618 159.3 165.834 159.517C167.007 159.727 168.173 159.97 169.347 160.173C170.087 160.3 170.834 160.429 171.581 160.459C171.895 160.472 172.294 160.306 172.526 160.091C174.305 158.446 176.029 156.745 177.815 155.108C179.814 153.276 181.904 151.547 184.159 150.009C185.19 149.306 186.345 149.428 187.469 149.523C188.124 149.578 188.757 149.885 189.398 150.084C189.925 150.246 189.972 150.562 189.738 151.009C188.674 153.039 187.629 155.078 186.565 157.107C185.646 158.861 184.71 160.607 183.749 162.387C182.495 164.746 181.273 167.075 180.047 169.403ZM81.6265 154.435C82.1856 152.863 82.6763 151.264 83.1172 149.657C83.4036 148.612 83.5661 147.534 83.7501 146.465C83.9392 145.367 84.0974 144.264 84.2502 143.16C84.4277 141.879 84.704 140.596 84.7254 139.311C84.7685 136.73 84.6587 134.147 84.6294 131.564C84.6116 129.986 84.6021 128.407 84.6338 126.829C84.6587 125.588 83.9161 124.662 83.3748 123.645C83.0145 122.967 82.6342 122.283 82.4041 121.56C81.9819 120.232 81.6386 118.88 81.3115 117.526C81.0878 116.601 80.9229 115.66 80.7758 114.72C80.6055 113.632 80.2376 112.61 79.76 111.622C79.7199 111.539 79.3842 111.479 79.3482 111.526C79.1558 111.776 79.0123 112.063 78.8568 112.34C78.5802 112.833 78.1596 113.302 78.0635 113.827C77.8715 114.875 77.3746 115.775 76.8666 116.675C76.5504 117.235 76.018 117.249 75.6481 116.736C75.2505 116.183 74.8211 115.625 74.5673 115.007C73.9708 113.554 73.4367 112.074 72.94 110.586C72.2873 108.629 71.6718 106.66 71.0858 104.684C70.7799 103.652 70.4749 102.604 70.3465 101.543C70.2205 100.502 70.3202 99.4366 70.3169 98.382C70.3166 98.2876 70.287 98.1934 70.271 98.0991C70.227 98.1326 70.1868 98.173 70.1385 98.1988C69.0018 98.8069 67.8722 99.428 66.7247 100.016C65.5865 100.599 64.4429 101.175 63.2784 101.706C62.0023 102.288 60.7216 102.888 59.9825 104.107C59.1829 105.425 58.2483 106.682 57.7666 108.168C57.27 109.701 56.7082 111.215 56.276 112.764C55.8339 114.349 55.5328 115.97 55.1344 117.567C54.8798 118.586 54.4604 119.576 54.2935 120.606C54.0387 122.178 53.8812 123.77 53.7899 125.36C53.7116 126.724 53.7176 128.091 53.5282 129.45C53.3812 130.506 53.2814 131.567 53.149 132.624C52.9474 134.234 52.5851 135.84 52.5592 137.451C52.5019 141.02 52.6529 144.591 52.6359 148.16C52.6269 150.031 52.9138 151.86 53.1404 153.703C53.3919 155.75 53.5409 157.809 53.781 159.858C53.9441 161.25 54.1074 162.65 54.4127 164.017C54.9099 166.242 55.444 168.465 56.1078 170.647C56.9361 173.37 58.1521 175.935 59.8644 178.261C60.9344 179.715 62.2406 180.905 63.853 181.761C66.0391 182.922 68.3835 182.821 70.7322 182.467C71.1175 182.409 71.6159 182.121 71.7809 181.802C72.2432 180.907 72.6471 179.964 72.9104 178.998C73.2844 177.625 73.4497 176.199 73.8166 174.824C74.4216 172.557 75.1829 170.328 75.753 168.054C76.2226 166.18 77.1175 164.49 77.8951 162.748C78.4673 161.466 79.144 160.228 79.8364 158.91C80.4377 157.42 81.089 155.947 81.6265 154.435ZM102.261 177.578C103.392 178.25 104.501 178.963 105.577 179.716C106.249 180.186 106.732 180.869 106.879 181.659C107.22 183.487 107.446 185.336 107.776 187.167C108.008 188.452 108.34 189.719 108.616 190.997C108.84 192.037 109.046 193.081 109.259 194.123C109.468 195.148 109.671 196.173 109.882 197.197C110.043 197.978 110.21 198.757 110.38 199.536C110.654 200.795 110.873 202.069 111.227 203.307C111.577 204.526 112.102 205.696 112.486 206.907C113.124 208.923 113.916 210.874 114.833 212.784C115.051 213.237 115.417 213.146 115.633 213.063C117.006 212.541 118.36 211.97 119.705 211.383C120.13 211.198 120.355 210.839 120.336 210.348C120.283 209.015 120.246 207.682 120.208 206.348C120.163 204.753 120.125 203.158 120.083 201.563C120.042 200.001 120.033 198.437 119.949 196.878C119.868 195.354 119.714 193.834 119.584 192.313C119.423 190.418 119.272 188.522 119.081 186.63C118.949 185.323 118.828 184.009 118.574 182.722C118.134 180.494 117.594 178.284 117.097 176.066C116.519 173.482 115.402 171.23 113.193 169.539C111.511 168.25 109.746 167.1 107.838 166.181C105.727 165.164 103.593 164.174 101.402 163.339C98.8977 162.383 96.4648 161.176 93.7072 160.956C92.3823 160.851 91.0681 160.625 89.7452 160.488C88.6841 160.378 87.6143 160.347 86.5536 160.234C84.875 160.055 83.2027 159.818 81.5224 159.658C81.2867 159.635 80.932 159.85 80.7874 160.058C80.4553 160.534 80.2053 161.067 79.9461 161.588C79.1363 163.216 78.1878 164.798 77.5718 166.493C76.7578 168.734 76.2053 171.064 75.5452 173.356C75.1711 174.655 75.1632 174.713 76.3278 174.951C77.6752 175.225 79.0442 175.408 80.4094 175.59C81.3023 175.71 82.2072 175.743 83.1034 175.843C84.8016 176.033 86.4956 176.26 88.195 176.438C89.2764 176.552 90.3635 176.62 91.4496 176.683C93.0728 176.776 94.6968 176.864 96.3216 176.922C97.2946 176.956 98.27 176.928 99.3687 176.928C100.389 176.91 101.386 177.058 102.261 177.578ZM151.019 170.034C152.066 170.081 153.113 170.131 154.16 170.153C156.588 170.203 159.017 170.243 161.446 170.272C161.931 170.277 162.368 170.082 162.498 169.597C163.202 166.984 164.586 164.562 164.764 161.798C164.809 161.097 164.496 160.602 163.76 160.477C162.993 160.346 162.235 160.163 161.469 160.021C160.506 159.843 159.539 159.686 158.575 159.514C157.71 159.359 156.845 159.198 155.981 159.036C155.348 158.917 154.718 158.786 154.085 158.669C152.873 158.447 151.661 158.229 150.448 158.013C149.618 157.865 148.79 157.713 147.957 157.583C147.312 157.483 146.66 157.419 146.013 157.328C144.646 157.134 143.28 156.932 141.914 156.733C141.133 156.62 140.354 156.495 139.572 156.392C138.529 156.255 137.483 156.024 136.44 156.03C133.821 156.044 131.202 156.156 128.583 156.256C127.331 156.303 126.077 156.371 124.833 156.507C124.136 156.584 123.466 156.798 122.961 157.369C122.138 158.298 121.255 159.177 120.423 160.1C119.898 160.682 119.407 161.295 118.927 161.914C118.293 162.733 117.518 163.23 116.412 163.147C114.599 163.01 112.783 162.91 110.97 162.775C110.298 162.725 109.628 162.627 108.959 162.536C107.825 162.382 106.693 162.202 105.558 162.058C104.472 161.92 103.382 161.805 102.292 161.696C101.985 161.665 101.67 161.682 101.36 161.699C101.299 161.703 101.243 161.805 101.184 161.862C101.247 161.89 101.312 161.916 101.373 161.948C101.919 162.225 102.45 162.533 103.011 162.774C104.658 163.481 106.356 164.086 107.961 164.871C110.292 166.011 112.467 167.403 114.445 169.076C115.058 169.595 115.646 169.98 116.652 169.85C118.246 169.644 119.736 169.262 121.166 168.585C123.091 167.674 125.05 166.927 127.264 167.373C128.545 167.631 129.832 167.858 131.111 168.124C131.922 168.293 132.712 168.572 133.528 168.689C134.541 168.835 135.572 168.861 136.594 168.948C138.454 169.105 140.312 169.273 142.171 169.429C143.434 169.536 144.697 169.632 146.022 169.793C147.688 169.874 149.353 169.958 151.019 170.034ZM86.2378 135.099C86.2562 135.582 86.2364 136.066 86.2447 136.55C86.2834 138.81 86.3199 141.07 86.3719 143.33C86.387 143.986 86.3574 144.663 86.5119 145.292C86.8247 146.565 87.2351 147.817 87.6347 149.068C87.8059 149.604 88.044 150.115 88.667 150.327C89.2092 150.512 89.7343 150.744 90.2774 150.925C91.0835 151.194 91.3306 151.093 91.8562 150.375C92.0301 150.138 92.2306 149.919 92.426 149.698C93.6853 148.27 94.9826 146.871 96.1954 145.407C97.0905 144.326 96.9353 142.587 95.4364 142.029C95.2752 141.969 95.1154 141.897 94.948 141.863C94.0623 141.685 94.1032 141.687 94.0738 140.873C93.9686 137.965 94.3195 135.049 93.8496 132.145C93.6621 130.985 93.7392 129.786 93.5668 128.623C93.2986 126.813 92.9271 125.017 92.5863 123.218C92.264 121.516 91.9409 119.814 91.5878 118.118C91.3243 116.853 91.0076 115.598 90.7238 114.336C90.5074 113.374 90.3374 112.4 90.076 111.45C90.0054 111.193 89.6775 111.003 89.4678 110.782C89.2224 111.013 88.7924 111.223 88.7627 111.477C88.6123 112.766 88.4079 114.08 88.5244 115.36C88.6582 116.829 88.8849 118.286 88.5964 119.745C88.2678 121.407 87.7209 123.004 86.7945 124.458C86.281 125.265 85.8974 126.101 85.9848 127.099C86.0712 128.086 86.0994 129.079 86.1138 130.071C86.1344 131.481 86.119 132.892 86.119 134.423C86.1605 134.648 86.2292 134.873 86.2378 135.099ZM79.7148 85.1492C79.6101 85.3068 79.4651 85.4515 79.4072 85.6239C78.8164 87.3821 78.2768 89.1574 77.6453 90.9015C77.2649 91.9522 76.6678 92.8897 75.6806 93.5501C74.9633 94.0298 74.2943 94.5771 73.5925 95.0794C73.2464 95.327 73.3195 95.5415 73.5354 95.8423C74.1812 96.7422 74.8638 97.6274 75.4029 98.5869C76.1469 99.9111 76.7841 101.293 77.4463 102.659C78.0914 103.991 78.7652 105.313 79.3239 106.679C79.7986 107.84 80.054 109.086 80.5423 110.24C80.9838 111.283 81.4573 112.311 81.6173 113.429C81.6717 113.808 81.7984 113.811 82.0944 113.81C83.8734 113.804 85.5914 113.576 87.0914 112.546C87.2196 112.458 87.3281 112.277 87.3524 112.125C87.4113 111.757 87.4012 111.38 87.4455 111.01C87.4768 110.748 87.652 110.466 87.5892 110.238C87.3555 109.391 87.0445 108.565 86.7726 107.728C86.2534 106.129 85.5722 104.547 85.5257 102.86C85.4785 101.143 85.6373 99.419 85.7582 97.7016C85.8075 97.001 85.9488 96.298 86.131 95.617C86.3447 94.8182 86.2939 94.5997 85.5525 94.2101C84.3326 93.569 83.2809 92.7068 82.5291 91.5948C81.3021 89.7801 80.3594 87.8271 80.023 85.5697C79.9202 85.4295 79.8175 85.2894 79.7148 85.1492ZM97.4118 84.6137C97.4456 84.5484 97.7474 84.3449 97.2986 84.2713C96.8451 84.197 96.3331 83.983 96.0216 83.6672C95.4108 83.0478 94.9054 82.3263 94.392 81.6224C94.2467 81.4232 94.1953 81.3024 93.991 81.5412C93.8614 81.6928 93.693 81.8131 93.5637 81.9649C92.4413 83.283 90.8273 83.8427 89.3161 83.4765C87.5044 83.0374 86.3998 81.159 86.3751 79.5294C86.3652 78.8797 86.154 78.3353 85.6204 77.9616C84.7324 77.3397 83.819 76.7514 82.9062 76.1637C82.3953 75.8348 81.9085 75.9423 81.7766 76.4611C81.4501 77.7456 81.0436 79.0331 80.9296 80.3408C80.7886 81.9587 80.8556 83.5922 81.2529 85.2066C81.9222 87.9264 82.7911 90.511 85.0735 92.4277C86.5452 93.6635 88.3629 93.9416 90.1151 93.1937C91.8516 92.4524 92.9186 91.0815 93.9565 89.6545C94.8289 88.4551 95.6986 87.2538 96.6316 85.9929C96.8954 85.535 97.1689 85.0818 97.4118 84.6137ZM172.616 165.395C173.822 166.888 175.225 168.134 177.146 168.737C178.332 169.109 178.766 169.044 179.423 167.827C180.762 165.345 182.085 162.854 183.405 160.362C183.932 159.367 184.419 158.352 184.947 157.357C185.979 155.414 187.024 153.477 188.069 151.541C188.26 151.187 188.078 150.867 187.797 150.831C186.822 150.704 185.792 150.433 184.886 151.019C183.692 151.792 182.489 152.569 181.391 153.461C179.724 154.814 178.118 156.241 176.538 157.69C175.82 158.346 175.215 159.12 174.577 159.857C174.074 160.439 173.427 160.928 173.236 161.723C173.059 162.458 172.884 163.193 172.708 164.049C172.501 164.488 172.27 164.967 172.616 165.395ZM131.527 230.295C131.811 230.317 132.359 230.192 132.362 230.117C132.398 229.076 132.601 227.973 131.64 227.161C130.392 226.104 129.182 224.999 127.88 224.009C125.779 222.412 123.617 220.891 121.479 219.34C120.716 218.785 119.956 218.197 118.984 218.052C118.114 217.923 117.227 217.906 116.353 217.793C115.617 217.697 115.116 218.007 114.668 218.523C113.584 219.773 112.795 221.163 112.496 222.787C112.263 224.059 112.684 224.76 113.74 225.062C115.751 225.638 117.748 226.261 119.755 226.85C121.194 227.272 122.645 227.652 124.081 228.083C126.174 228.711 128.258 229.369 130.471 230.014C130.822 230.113 131.169 230.268 131.527 230.295ZM89.2913 151.894C87.9025 151.359 86.5218 150.804 85.1296 150.278C84.7184 150.122 84.3682 150.076 84.2326 150.692C84.0854 151.361 83.7714 151.994 83.5445 152.648C83.0411 154.098 82.5353 155.547 82.0586 157.005C81.9705 157.274 81.8364 157.653 82.3839 157.704C83.0971 157.771 83.8061 157.887 84.5203 157.937C85.9149 158.036 87.3108 158.133 88.708 158.178C90.7835 158.244 92.8606 158.268 94.9371 158.304C95.6002 158.315 96.2638 158.304 96.9271 158.307C97.0884 158.308 97.2594 158.296 97.4095 158.342C99.2073 158.889 100.999 159.455 102.798 159.996C104.608 160.54 106.422 161.074 108.355 160.97C109.027 160.933 109.15 160.811 108.903 160.21C108.768 159.882 108.581 159.548 108.333 159.295C107.122 158.061 105.643 157.199 104.061 156.491C102.8 155.926 101.568 155.297 100.151 155.155C99.4867 155.088 98.8183 154.996 98.1737 154.833C97.1497 154.575 96.1343 154.277 95.1329 153.945C93.8814 153.531 92.6478 153.066 91.282 152.622C90.6182 152.38 89.9505 152.147 89.2913 151.894ZM73.6722 98.5117C73.0901 97.6345 72.4774 96.7764 71.876 95.9114C71.7922 95.791 71.7008 95.6756 71.6129 95.5579C71.5549 95.7561 71.4731 95.9508 71.443 96.1529C71.3436 96.8206 71.2876 97.4951 71.1697 98.1595C70.9362 99.4744 70.8092 100.766 71.6857 101.935C71.7412 102.009 71.7847 102.098 71.8098 102.186C72.1321 103.326 72.4487 104.466 72.77 105.606C72.8514 105.894 72.9363 106.182 73.0338 106.466C73.453 107.686 73.961 108.885 74.277 110.13C74.6015 111.408 74.85 112.694 75.5239 113.862C75.7176 114.197 75.7803 114.602 75.9232 114.968C75.9658 115.077 76.1064 115.253 76.151 115.24C76.2934 115.196 76.4811 115.105 76.5289 114.985C77.0855 113.596 77.3535 112.078 78.4091 110.911C79.3058 109.92 79.1197 108.907 78.5697 107.849C78.3547 107.436 78.2218 106.983 78.0299 106.557C77.6151 105.636 77.2179 104.706 76.7537 103.81C76.3481 103.026 75.8568 102.285 75.4104 101.521C75.0965 100.983 74.7942 100.44 74.4245 99.8387C74.1756 99.3952 73.9532 98.9351 73.6722 98.5117ZM107.276 154.009C105.459 152.868 103.617 151.759 101.857 150.54C100.383 149.519 99.0164 148.351 97.5838 147.272C97.1972 146.981 96.7534 146.884 96.3583 147.323C95.7182 148.034 95.0658 148.735 94.4266 149.447C93.9506 149.978 93.4933 150.524 93.0165 151.054C92.6438 151.468 92.683 151.69 93.2286 151.848C94.9816 152.358 96.7474 152.827 98.4951 153.353C100.881 154.071 103.264 154.801 105.628 155.583C106.385 155.833 107.051 156.338 107.807 156.592C108.574 156.85 109.394 156.984 110.203 157.094C111.137 157.22 112.082 157.271 113.025 157.328C113.175 157.337 113.334 157.206 113.489 157.14C113.397 157.016 113.328 156.865 113.21 156.772C111.716 155.583 109.932 154.969 108.077 154.315C107.809 154.215 107.512 154.158 107.276 154.009ZM83.6195 122.158C83.8505 123.01 84.3993 123.425 85.2444 123.502C85.974 123.568 86.1884 123.179 86.3663 122.661C86.6212 121.918 86.8736 121.175 87.1127 120.427C87.6438 118.767 87.5678 117.094 87.2499 115.406C87.1462 114.856 87.1705 114.282 87.1445 113.719C87.1408 113.637 87.1836 113.553 87.2049 113.47C87.1196 113.494 87.0311 113.511 86.9495 113.544C86.4372 113.75 85.9439 114.036 85.4114 114.152C84.4138 114.37 83.3968 114.514 82.3814 114.64C81.9894 114.689 81.7572 114.729 81.8817 115.195C81.9993 115.636 82.0462 116.094 82.1398 116.541C82.3412 117.504 82.5526 118.466 82.76 119.549C83.0503 120.418 83.3804 121.276 83.6195 122.158ZM94.2512 113.062C94.3479 113.141 94.4553 113.209 94.5579 113.282C94.5573 113.147 94.5957 112.997 94.5498 112.879C94.2801 112.182 94.0289 111.475 93.7001 110.805C92.9985 109.374 92.3537 107.903 91.4972 106.562C90.6552 105.244 89.5214 104.105 88.627 102.814C87.9862 101.889 87.5329 100.843 86.9858 99.8556C86.9017 99.7038 86.7627 99.5808 86.6491 99.4445C86.5968 99.6047 86.4961 99.766 86.5001 99.9249C86.5263 100.956 86.54 101.989 86.6289 103.015C86.6895 103.716 86.8109 104.421 87.0045 105.097C87.2194 105.848 87.609 106.553 87.8097 107.306C88.0447 108.188 88.4752 108.745 89.353 109.216C90.8088 109.997 92.311 110.808 93.3348 112.294C93.6399 112.55 93.9435 112.808 94.2512 113.062ZM87.7711 78.8925C87.2935 79.5689 88.1792 81.9388 88.6608 82.1151C92.0323 83.349 92.9935 81.2374 93.0378 80.6576C93.1256 79.507 93.2715 78.3403 92.1529 77.4073C89.2022 76.8366 88.5431 77.7994 87.7711 78.8925ZM100.681 79.8505C100.228 78.7528 99.542 78.0368 98.3479 78.2874C97.7385 78.4153 97.2018 78.8849 96.6413 79.2146C95.4374 79.9228 95.2799 80.3103 95.7007 81.5657C96.1219 82.8222 97.1044 83.5419 98.3544 83.7862C99.389 83.9885 100.128 83.3645 100.675 82.4256C100.813 81.568 101.039 80.7193 100.681 79.8505ZM96.2161 78.4312C96.7022 78.0951 97.229 77.5974 97.7534 77.579C98.6606 77.5472 98.5132 77.0084 98.4153 76.5841C98.1419 75.3986 97.7847 74.2305 97.436 73.0626C97.1972 72.263 96.9952 72.2171 96.4161 72.7803C95.424 73.745 94.4189 74.691 93.1726 75.3569C92.7828 75.5652 92.7292 76.045 93.0079 76.423C93.1117 76.5638 93.2524 76.6845 93.3302 76.8366C93.7135 77.5858 94.061 78.3532 94.4702 79.0885C94.5606 79.251 94.4918 79.8259 95.0765 79.4025C95.4542 79.0758 95.8065 78.7144 96.2161 78.4312ZM169.427 165.178C170.274 165.025 171.181 164.813 171.311 163.719C171.333 163.535 171.42 163.359 171.463 163.177C171.73 162.045 171.427 161.682 170.262 161.56C169.165 161.446 168.076 161.255 166.985 161.084C166.402 160.992 166.294 161.099 166.23 161.676C166.141 162.476 166.013 163.273 165.859 164.064C165.724 164.756 165.923 165.304 166.55 165.44C167.51 165.359 168.484 165.348 169.427 165.178ZM118.624 216.694C118.742 216.689 118.944 216.461 118.948 216.33C118.977 215.465 118.956 214.599 118.966 213.733C118.972 213.247 118.588 213.23 118.313 213.316C117.714 213.501 117.144 213.778 116.566 214.025C116.149 214.204 115.679 214.349 115.73 214.934C115.765 215.348 115.765 215.771 115.863 216.171C116.026 216.835 116.616 216.519 117.097 216.651C117.606 216.672 118.117 216.716 118.624 216.694ZM85.4878 146.351C85.452 146.252 85.3048 146.192 85.2088 146.114C85.139 146.212 85.0174 146.304 85.0078 146.407C84.9494 147.028 84.8994 147.652 84.8798 148.276C84.8606 148.885 85.3044 149.281 85.9421 149.224C86.0501 149.215 86.2416 149.03 86.2276 148.956C86.1337 148.46 85.9946 147.973 85.808 147.422C85.7043 147.064 85.615 146.701 85.4878 146.351ZM120.539 157.775C120.608 157.642 120.754 157.271 120.332 157.348C119.688 157.466 119.055 157.643 118.422 157.811C118.306 157.842 118.212 157.947 118.108 158.018C118.229 158.074 118.348 158.173 118.471 158.177C118.987 158.195 119.504 158.185 120.083 158.124C120.241 158.011 120.46 157.927 120.539 157.775ZM72.4962 94.3367C72.397 94.3928 72.2979 94.4489 72.1987 94.5049C72.2767 94.5895 72.3406 94.7068 72.438 94.7464C72.4962 94.77 72.6237 94.6889 72.6909 94.6255C73.0738 94.2648 73.4498 93.8971 73.8234 93.5273C73.8983 93.4532 73.9527 93.3596 74.0165 93.2751C73.8907 93.299 73.7327 93.2842 73.6447 93.3535C73.2713 93.6475 72.9186 93.9664 72.4962 94.3367Z" fill="#00160A"/>
<path id="Highlights_14" fill-rule="evenodd" clip-rule="evenodd" d="M85.8274 87.2927C85.2446 86.9863 84.6681 86.7349 84.547 86.0521C84.3116 84.7253 84.8032 83.1622 86.5813 83.2531C88.1846 83.335 89.2019 84.6297 88.6347 86.0922C88.2164 87.1705 87.2016 87.7052 85.8274 87.2927Z" fill="#FFB61D"/>
<path id="Stroke_2" fill-rule="evenodd" clip-rule="evenodd" d="M93.7338 82.3432C93.7658 82.1398 93.7978 81.9974 93.8297 81.855C93.8801 81.9792 93.9449 82.0997 93.9787 82.2281C94.2288 83.1797 95.0215 85.5493 94.0774 86.6397C93.9988 86.7304 93.6006 86.7447 93.3525 86.7294C92.8649 86.6994 92.2967 86.0002 92.3871 85.5493C92.4007 85.4817 93.5773 86.592 93.8297 85.9911C94.2507 84.989 93.7338 82.6878 93.7338 82.3432Z" fill="#00160A"/>
<path id="Stroke_3" fill-rule="evenodd" clip-rule="evenodd" d="M87.097 89.2869C87.048 89.2627 86.9802 89.2692 86.9216 89.2715C86.7767 89.2774 86.5783 89.025 86.6628 88.9181C86.7899 88.7575 86.9341 88.5952 87.1063 88.4894C87.2089 88.4264 87.3785 88.6307 87.3657 88.721C87.3561 88.7885 87.4221 88.8942 87.4861 88.9399C88.4601 89.6358 89.5414 90.0868 90.7248 90.3036C90.803 90.3179 90.8711 90.3858 90.9438 90.4288C90.8713 90.4777 90.7991 90.5729 90.7262 90.5687C89.4353 90.4954 87.9428 89.7041 87.097 89.2869Z" fill="#00160A"/>
</g>
<path id="Highlights_15" fill-rule="evenodd" clip-rule="evenodd" d="M55.6456 143.778L54.4194 148.871C54.3246 149.264 54.7057 149.609 55.1028 149.489L59.3594 148.2C59.7175 148.092 59.8543 147.669 59.6246 147.381L56.5941 143.577C56.317 143.229 55.7488 143.35 55.6456 143.778ZM56.1691 144.595L58.8411 147.701L54.9429 148.99L56.1691 144.595Z" fill="#FFB61D"/>
<path id="Highlights_16" fill-rule="evenodd" clip-rule="evenodd" d="M59.4496 114.398C59.0015 114.358 58.7051 114.84 58.9524 115.206L62.0708 119.816C62.281 120.126 62.7483 120.13 62.964 119.823L65.8342 115.736C66.0657 115.406 65.8471 114.956 65.4382 114.92L59.4496 114.398ZM59.8715 114.92L65.2331 115.933L62.0708 119.152L59.8715 114.92Z" fill="#FFB61D"/>
<path id="Highlights_17" fill-rule="evenodd" clip-rule="evenodd" d="M79.2126 149.648H74.8143C74.4497 149.648 74.1908 149.994 74.3025 150.331L75.78 154.797C75.9195 155.219 76.501 155.291 76.7455 154.918L79.6663 150.452C79.894 150.104 79.6368 149.648 79.2126 149.648ZM78.8542 150.52L76.6502 154.637L75.1727 150.171L78.8542 150.52Z" fill="#FFB61D"/>
<path id="Highlights_18" fill-rule="evenodd" clip-rule="evenodd" d="M64.8006 173.847L64.5996 177.718C64.5785 178.124 65.0206 178.397 65.3894 178.206L70.5033 175.557C70.9365 175.332 70.8593 174.707 70.3837 174.589L65.4708 173.366C65.1416 173.284 64.8177 173.516 64.8006 173.847ZM65.1893 174.216L69.8889 174.851L65.3893 177.437L65.1893 174.216Z" fill="#FFB61D"/>
<path id="Highlights_19" fill-rule="evenodd" clip-rule="evenodd" d="M58.02 126.298L54.0772 128.955C53.7435 129.18 53.7768 129.67 54.1379 129.85L58.752 132.154C59.1377 132.346 59.5872 132.038 59.5306 131.62L58.8593 126.659C58.8068 126.271 58.3507 126.075 58.02 126.298ZM58.1783 127.221L58.9975 131.689L54.3835 129.385L58.1783 127.221Z" fill="#FFB61D"/>
<path id="Highlights_20" fill-rule="evenodd" clip-rule="evenodd" d="M76.1109 137.681L73.6507 141.253C73.4389 141.56 73.6137 141.979 73.9862 142.055L76.8627 142.647C77.2182 142.72 77.5443 142.437 77.5091 142.085L77.0927 137.921C77.0438 137.433 76.3919 137.273 76.1109 137.681ZM76.7808 138.397V142.222L74.3074 141.253L76.7808 138.397Z" fill="#FFB61D"/>
<path id="Highlights_21" fill-rule="evenodd" clip-rule="evenodd" d="M76.5769 120.853C77.2928 120.399 77.9208 120.507 77.4097 121.506C77.4097 121.506 73.6781 130.707 72.5632 130.816C71.5058 130.919 70.9955 129.589 69.5191 125.788L69.4563 125.626C69.4508 125.611 69.4459 125.597 69.4417 125.583L69.4338 125.552L69.4242 125.536L69.4038 125.489L69.2272 125.025C69.0186 124.471 68.4938 123.558 68.2162 123.24C67.9204 122.902 68.5803 122.693 69.0678 122.693C69.9776 122.693 71.0908 122.94 72.8416 122.448C74.8921 121.873 75.5958 121.476 76.5769 120.853ZM74.9899 125.58L74.9407 125.611C74.4201 125.922 73.8448 126.162 73.216 126.329C72.464 126.529 71.3729 126.554 70.667 126.404L70.5489 126.377L70.5925 126.483C70.9908 127.448 71.3451 128.565 71.6537 129.133L71.7614 129.326C71.9549 129.664 72.1249 129.91 72.2623 130.057L72.3053 130.101L72.3587 130.038C72.5888 129.752 73.408 128.676 73.977 127.6L74.0366 127.487C74.2802 127.023 74.5459 126.495 74.8337 125.904L74.9899 125.58ZM76.5258 121.916L76.4393 121.964C75.6297 122.402 74.2907 123.13 73.1398 123.453C71.762 123.84 70.594 123.978 69.6332 123.854L69.5743 123.845L69.6081 123.938C69.6998 124.188 70.0889 125.371 70.2267 125.552C70.7843 126.053 71.4681 126.101 72.3052 125.904L72.4252 125.874C75.423 125.31 76.5258 121.916 76.5258 121.916Z" fill="#FFB61D"/>
<path id="Shadow_10" fill-rule="evenodd" clip-rule="evenodd" d="M181.8 154.081C181.919 153.995 182.087 154.02 182.175 154.136C182.796 154.954 183.847 154.995 185.244 154.24C185.373 154.17 185.537 154.216 185.609 154.342C185.681 154.468 185.634 154.627 185.505 154.697C183.897 155.565 182.552 155.514 181.743 154.446C181.655 154.33 181.68 154.166 181.8 154.081Z" fill="#E7EAEE"/>
<path id="Shadow_11" fill-rule="evenodd" clip-rule="evenodd" d="M179.767 156.175C179.877 156.078 180.047 156.085 180.147 156.192C181.089 157.199 182.339 157.257 183.357 156.728C183.488 156.66 183.65 156.708 183.72 156.836C183.79 156.963 183.741 157.121 183.61 157.189C182.395 157.82 180.878 157.751 179.749 156.544C179.649 156.437 179.658 156.272 179.767 156.175Z" fill="#E7EAEE"/>
<path id="Shadow_12" fill-rule="evenodd" clip-rule="evenodd" d="M177.566 158.249C177.674 158.15 177.844 158.155 177.946 158.26C178.853 159.197 180.698 159.656 181.959 159.005C182.091 158.938 182.253 158.986 182.323 159.114C182.392 159.241 182.342 159.4 182.211 159.467C180.717 160.237 178.616 159.716 177.554 158.619C177.453 158.513 177.458 158.348 177.566 158.249Z" fill="#E7EAEE"/>
<path id="Shadow_13" fill-rule="evenodd" clip-rule="evenodd" d="M179.275 166.447C181.162 165.56 179.211 162.269 177.385 163.601C176.214 164.455 177.498 167.284 179.275 166.447Z" fill="#E7EAEE"/>
</g>
</g>
</g>
</svg>
